<?xml version="1.0" standalone="no"?>
<!DOCTYPE svg PUBLIC "-//W3C//DTD SVG 20010904//EN"
 "http://www.w3.org/TR/2001/REC-SVG-20010904/DTD/svg10.dtd">
<svg version="1.0" xmlns="http://www.w3.org/2000/svg"
 width="260.000000pt" height="260.000000pt" viewBox="0 0 260.000000 260.000000"
 preserveAspectRatio="xMidYMid meet">
<metadata>
Created by potrace 1.11, written by Peter Selinger 2001-2013
</metadata>
<g transform="translate(0.000000,260.000000) scale(0.100000,-0.100000)"
fill="#000000" stroke="none">
<path d="M500 2343 c0 -4 74 -82 165 -173 l165 -165 373 -1 c232 -1 385 -6
405 -12 175 -56 282 -251 233 -420 -32 -110 -140 -212 -251 -238 -19 -4 -273
-8 -565 -8 l-530 -1 -3 -513 -2 -512 170 0 170 0 0 340 0 340 358 1 c395 1
420 2 505 24 148 38 301 149 393 285 114 167 139 428 62 625 -64 162 -209 312
-368 379 -121 52 -161 55 -742 56 -296 0 -538 -3 -538 -7z"/>
</g>
</svg>
