<svg width="48" height="48" viewBox="0 0 48 48" fill="none" xmlns="http://www.w3.org/2000/svg">
<path d="M0 36V33.35C0 32.05 0.7 31 2.1 30.2C3.5 29.4 5.3 29 7.5 29C7.93333 29 8.33333 29.0083 8.7 29.025C9.06667 29.0417 9.43333 29.0833 9.8 29.15C9.53333 29.7167 9.33333 30.2917 9.2 30.875C9.06667 31.4583 9 32.0833 9 32.75V36H0ZM12 36V32.75C12 30.5833 13.1083 28.8333 15.325 27.5C17.5417 26.1667 20.4333 25.5 24 25.5C27.6 25.5 30.5 26.1667 32.7 27.5C34.9 28.8333 36 30.5833 36 32.75V36H12ZM39 36V32.75C39 32.0833 38.9417 31.4583 38.825 30.875C38.7083 30.2917 38.5167 29.7167 38.25 29.15C38.6167 29.0833 38.9833 29.0417 39.35 29.025C39.7167 29.0083 40.1 29 40.5 29C42.7667 29 44.5833 29.4 45.95 30.2C47.3167 31 48 32.05 48 33.35V36H39ZM24 28.5C21.3333 28.5 19.1667 28.9 17.5 29.7C15.8333 30.5 15 31.5167 15 32.75V33H33V32.7C33 31.5 32.175 30.5 30.525 29.7C28.875 28.9 26.7 28.5 24 28.5ZM7.5 27.5C6.53333 27.5 5.70833 27.1583 5.025 26.475C4.34167 25.7917 4 24.9667 4 24C4 23.0333 4.34167 22.2083 5.025 21.525C5.70833 20.8417 6.53333 20.5 7.5 20.5C8.46667 20.5 9.29167 20.8417 9.975 21.525C10.6583 22.2083 11 23.0333 11 24C11 24.9667 10.6583 25.7917 9.975 26.475C9.29167 27.1583 8.46667 27.5 7.5 27.5ZM40.5 27.5C39.5333 27.5 38.7083 27.1583 38.025 26.475C37.3417 25.7917 37 24.9667 37 24C37 23.0333 37.3417 22.2083 38.025 21.525C38.7083 20.8417 39.5333 20.5 40.5 20.5C41.4667 20.5 42.2917 20.8417 42.975 21.525C43.6583 22.2083 44 23.0333 44 24C44 24.9667 43.6583 25.7917 42.975 26.475C42.2917 27.1583 41.4667 27.5 40.5 27.5ZM24 24C22.3333 24 20.9167 23.4167 19.75 22.25C18.5833 21.0833 18 19.6667 18 18C18 16.3 18.5833 14.875 19.75 13.725C20.9167 12.575 22.3333 12 24 12C25.7 12 27.125 12.575 28.275 13.725C29.425 14.875 30 16.3 30 18C30 19.6667 29.425 21.0833 28.275 22.25C27.125 23.4167 25.7 24 24 24ZM24 15C23.1667 15 22.4583 15.2833 21.875 15.85C21.2917 16.4167 21 17.1333 21 18C21 18.8333 21.2917 19.5417 21.875 20.125C22.4583 20.7083 23.1667 21 24 21C24.8667 21 25.5833 20.7083 26.15 20.125C26.7167 19.5417 27 18.8333 27 18C27 17.1333 26.7167 16.4167 26.15 15.85C25.5833 15.2833 24.8667 15 24 15Z" fill="#0074FC"/>
</svg>
