<svg width="48" height="48" viewBox="0 0 48 48" fill="none" xmlns="http://www.w3.org/2000/svg">
<path d="M32 38C31.0333 38 30.0333 37.8833 29 37.65C27.9667 37.4167 27.0833 37.1167 26.35 36.75C28.0833 35.55 29.4583 33.8 30.475 31.5C31.4917 29.2 32 26.7 32 24C32 21.3 31.4917 18.8 30.475 16.5C29.4583 14.2 28.0833 12.45 26.35 11.25C27.0833 10.8833 27.9667 10.5833 29 10.35C30.0333 10.1167 31.0333 10 32 10C35.9 10 39.2083 11.3583 41.925 14.075C44.6417 16.7917 46 20.1 46 24C46 27.9 44.6417 31.2083 41.925 33.925C39.2083 36.6417 35.9 38 32 38ZM24 35.5C22.4667 35.5 21.0833 34.3167 19.85 31.95C18.6167 29.5833 18 26.9333 18 24C18 21.0667 18.6167 18.4167 19.85 16.05C21.0833 13.6833 22.4667 12.5 24 12.5C25.5333 12.5 26.9167 13.6833 28.15 16.05C29.3833 18.4167 30 21.0667 30 24C30 26.9333 29.3833 29.5833 28.15 31.95C26.9167 34.3167 25.5333 35.5 24 35.5ZM16 38C12.1 38 8.79167 36.6417 6.075 33.925C3.35833 31.2083 2 27.9 2 24C2 20.1 3.35833 16.7917 6.075 14.075C8.79167 11.3583 12.1 10 16 10C16.9667 10 17.9667 10.1167 19 10.35C20.0333 10.5833 20.9167 10.8833 21.65 11.25C19.9167 12.45 18.5417 14.2 17.525 16.5C16.5083 18.8 16 21.3 16 24C16 26.7 16.5083 29.2 17.525 31.5C18.5417 33.8 19.9167 35.55 21.65 36.75C20.9167 37.1167 20.0333 37.4167 19 37.65C17.9667 37.8833 16.9667 38 16 38Z" fill="#0074FC"/>
</svg>
