<svg width="48" height="48" viewBox="0 0 48 48" fill="none" xmlns="http://www.w3.org/2000/svg">
<path d="M24.05 21C21.95 21 20.1667 20.2667 18.7 18.8C17.2333 17.3333 16.5 15.5667 16.5 13.5C16.5 11.4 17.2333 9.625 18.7 8.175C20.1667 6.725 21.9333 6 24 6C26.1 6 27.875 6.725 29.325 8.175C30.775 9.625 31.5 11.3833 31.5 13.45C31.5 15.55 30.775 17.3333 29.325 18.8C27.875 20.2667 26.1167 21 24.05 21ZM24 18C25.2667 18 26.3333 17.5583 27.2 16.675C28.0667 15.7917 28.5 14.7333 28.5 13.5C28.5 12.2333 28.0667 11.1667 27.2 10.3C26.3333 9.43333 25.2833 9 24.05 9C22.7833 9 21.7083 9.43333 20.825 10.3C19.9417 11.1667 19.5 12.2167 19.5 13.45C19.5 14.7167 19.9417 15.7917 20.825 16.675C21.7083 17.5583 22.7667 18 24 18ZM13.55 42C11.45 42 9.66667 41.2667 8.2 39.8C6.73333 38.3333 6 36.5667 6 34.5C6 32.4 6.73333 30.625 8.2 29.175C9.66667 27.725 11.4333 27 13.5 27C15.6 27 17.375 27.725 18.825 29.175C20.275 30.625 21 32.3833 21 34.45C21 36.55 20.275 38.3333 18.825 39.8C17.375 41.2667 15.6167 42 13.55 42ZM13.5 39C14.7667 39 15.8333 38.5583 16.7 37.675C17.5667 36.7917 18 35.7333 18 34.5C18 33.2333 17.5667 32.1667 16.7 31.3C15.8333 30.4333 14.7833 30 13.55 30C12.2833 30 11.2083 30.4333 10.325 31.3C9.44167 32.1667 9 33.2167 9 34.45C9 35.7167 9.44167 36.7917 10.325 37.675C11.2083 38.5583 12.2667 39 13.5 39ZM34.55 42C32.45 42 30.6667 41.2667 29.2 39.8C27.7333 38.3333 27 36.5667 27 34.5C27 32.4 27.7333 30.625 29.2 29.175C30.6667 27.725 32.4333 27 34.5 27C36.6 27 38.375 27.725 39.825 29.175C41.275 30.625 42 32.3833 42 34.45C42 36.55 41.275 38.3333 39.825 39.8C38.375 41.2667 36.6167 42 34.55 42ZM34.5 39C35.7667 39 36.8333 38.5583 37.7 37.675C38.5667 36.7917 39 35.7333 39 34.5C39 33.2333 38.5667 32.1667 37.7 31.3C36.8333 30.4333 35.7833 30 34.55 30C33.2833 30 32.2083 30.4333 31.325 31.3C30.4417 32.1667 30 33.2167 30 34.45C30 35.7167 30.4417 36.7917 31.325 37.675C32.2083 38.5583 33.2667 39 34.5 39Z" fill="#0074FC"/>
</svg>
