<svg width="1440" height="681" viewBox="0 0 1440 681" fill="none" xmlns="http://www.w3.org/2000/svg">
<g opacity="0.3">
<rect width="1.69095" height="1.69095" transform="matrix(-1.31134e-07 1 1 1.31134e-07 33.2759 0)" fill="#0074FC"/>
<rect width="1.69095" height="1.69095" transform="matrix(-1.31134e-07 1 1 1.31134e-07 101.552 0)" fill="#0074FC"/>
<rect width="1.69095" height="1.69095" transform="matrix(-1.31134e-07 1 1 1.31134e-07 169.827 0)" fill="#0074FC"/>
<rect width="1.69095" height="1.69095" transform="matrix(-1.31134e-07 1 1 1.31134e-07 238.103 0)" fill="#0074FC"/>
<rect width="1.69095" height="1.69095" transform="matrix(-1.31134e-07 1 1 1.31134e-07 306.379 0)" fill="#0074FC"/>
<rect width="1.69095" height="1.69095" transform="matrix(-1.31134e-07 1 1 1.31134e-07 374.655 0)" fill="#0074FC"/>
<rect width="1.69095" height="1.69095" transform="matrix(-1.31134e-07 1 1 1.31134e-07 442.93 0)" fill="#0074FC"/>
<rect width="1.69095" height="1.69095" transform="matrix(-1.31134e-07 1 1 1.31134e-07 511.206 0)" fill="#0074FC"/>
<rect width="1.69095" height="1.69095" transform="matrix(-1.31134e-07 1 1 1.31134e-07 579.482 0)" fill="#0074FC"/>
<rect width="1.69095" height="1.69095" transform="matrix(-1.31134e-07 1 1 1.31134e-07 647.758 0)" fill="#0074FC"/>
<rect width="1.69095" height="1.69095" transform="matrix(-1.31134e-07 1 1 1.31134e-07 716.033 0)" fill="#0074FC"/>
<rect width="1.69095" height="1.69095" transform="matrix(-1.31134e-07 1 1 1.31134e-07 784.309 0)" fill="#0074FC"/>
<rect width="1.69095" height="1.69095" transform="matrix(-1.31134e-07 1 1 1.31134e-07 33.2759 68.2754)" fill="#0074FC"/>
<rect width="1.69095" height="1.69095" transform="matrix(-1.31134e-07 1 1 1.31134e-07 101.552 68.2754)" fill="#0074FC"/>
<rect width="1.69095" height="1.69095" transform="matrix(-1.31134e-07 1 1 1.31134e-07 169.827 68.2754)" fill="#0074FC"/>
<rect width="1.69095" height="1.69095" transform="matrix(-1.31134e-07 1 1 1.31134e-07 238.103 68.2754)" fill="#0074FC"/>
<rect width="1.69095" height="1.69095" transform="matrix(-1.31134e-07 1 1 1.31134e-07 306.379 68.2754)" fill="#0074FC"/>
<rect width="1.69095" height="1.69095" transform="matrix(-1.31134e-07 1 1 1.31134e-07 374.655 68.2754)" fill="#0074FC"/>
<rect width="1.69095" height="1.69095" transform="matrix(-1.31134e-07 1 1 1.31134e-07 442.93 68.2754)" fill="#0074FC"/>
<rect width="1.69095" height="1.69095" transform="matrix(-1.31134e-07 1 1 1.31134e-07 511.206 68.2754)" fill="#0074FC"/>
<rect width="1.69095" height="1.69095" transform="matrix(-1.31134e-07 1 1 1.31134e-07 579.482 68.2754)" fill="#0074FC"/>
<rect width="1.69095" height="1.69095" transform="matrix(-1.31134e-07 1 1 1.31134e-07 647.758 68.2754)" fill="#0074FC"/>
<rect width="1.69095" height="1.69095" transform="matrix(-1.31134e-07 1 1 1.31134e-07 716.033 68.2754)" fill="#0074FC"/>
<rect width="1.69095" height="1.69095" transform="matrix(-1.31134e-07 1 1 1.31134e-07 784.309 68.2754)" fill="#0074FC"/>
<rect width="1.69095" height="1.69095" transform="matrix(-1.31134e-07 1 1 1.31134e-07 33.2759 136.552)" fill="#0074FC"/>
<rect width="1.69095" height="1.69095" transform="matrix(-1.31134e-07 1 1 1.31134e-07 101.552 136.552)" fill="#0074FC"/>
<rect width="1.69095" height="1.69095" transform="matrix(-1.31134e-07 1 1 1.31134e-07 169.827 136.552)" fill="#0074FC"/>
<rect width="1.69095" height="1.69095" transform="matrix(-1.31134e-07 1 1 1.31134e-07 238.103 136.552)" fill="#0074FC"/>
<rect width="1.69095" height="1.69095" transform="matrix(-1.31134e-07 1 1 1.31134e-07 306.379 136.552)" fill="#0074FC"/>
<rect width="1.69095" height="1.69095" transform="matrix(-1.31134e-07 1 1 1.31134e-07 374.655 136.552)" fill="#0074FC"/>
<rect width="1.69095" height="1.69095" transform="matrix(-1.31134e-07 1 1 1.31134e-07 442.93 136.552)" fill="#0074FC"/>
<rect width="1.69095" height="1.69095" transform="matrix(-1.31134e-07 1 1 1.31134e-07 511.206 136.552)" fill="#0074FC"/>
<rect width="1.69095" height="1.69095" transform="matrix(-1.31134e-07 1 1 1.31134e-07 579.482 136.552)" fill="#0074FC"/>
<rect width="1.69095" height="1.69095" transform="matrix(-1.31134e-07 1 1 1.31134e-07 647.758 136.552)" fill="#0074FC"/>
<rect width="1.69095" height="1.69095" transform="matrix(-1.31134e-07 1 1 1.31134e-07 716.033 136.552)" fill="#0074FC"/>
<rect width="1.69095" height="1.69095" transform="matrix(-1.31134e-07 1 1 1.31134e-07 784.309 136.552)" fill="#0074FC"/>
<rect width="1.69095" height="1.69095" transform="matrix(-1.31134e-07 1 1 1.31134e-07 33.2759 204.827)" fill="#0074FC"/>
<rect width="1.69095" height="1.69095" transform="matrix(-1.31134e-07 1 1 1.31134e-07 101.552 204.827)" fill="#0074FC"/>
<rect width="1.69095" height="1.69095" transform="matrix(-1.31134e-07 1 1 1.31134e-07 169.827 204.827)" fill="#0074FC"/>
<rect width="1.69095" height="1.69095" transform="matrix(-1.31134e-07 1 1 1.31134e-07 238.103 204.827)" fill="#0074FC"/>
<rect width="1.69095" height="1.69095" transform="matrix(-1.31134e-07 1 1 1.31134e-07 306.379 204.827)" fill="#0074FC"/>
<rect width="1.69095" height="1.69095" transform="matrix(-1.31134e-07 1 1 1.31134e-07 374.655 204.827)" fill="#0074FC"/>
<rect width="1.69095" height="1.69095" transform="matrix(-1.31134e-07 1 1 1.31134e-07 442.93 204.827)" fill="#0074FC"/>
<rect width="1.69095" height="1.69095" transform="matrix(-1.31134e-07 1 1 1.31134e-07 511.206 204.827)" fill="#0074FC"/>
<rect width="1.69095" height="1.69095" transform="matrix(-1.31134e-07 1 1 1.31134e-07 579.482 204.827)" fill="#0074FC"/>
<rect width="1.69095" height="1.69095" transform="matrix(-1.31134e-07 1 1 1.31134e-07 647.758 204.827)" fill="#0074FC"/>
<rect width="1.69095" height="1.69095" transform="matrix(-1.31134e-07 1 1 1.31134e-07 716.033 204.827)" fill="#0074FC"/>
<rect width="1.69095" height="1.69095" transform="matrix(-1.31134e-07 1 1 1.31134e-07 784.309 204.827)" fill="#0074FC"/>
<rect width="1.69095" height="1.69095" transform="matrix(-1.31134e-07 1 1 1.31134e-07 33.2759 273.103)" fill="#0074FC"/>
<rect width="1.69095" height="1.69095" transform="matrix(-1.31134e-07 1 1 1.31134e-07 101.552 273.103)" fill="#0074FC"/>
<rect width="1.69095" height="1.69095" transform="matrix(-1.31134e-07 1 1 1.31134e-07 169.827 273.103)" fill="#0074FC"/>
<rect width="1.69095" height="1.69095" transform="matrix(-1.31134e-07 1 1 1.31134e-07 238.103 273.103)" fill="#0074FC"/>
<rect width="1.69095" height="1.69095" transform="matrix(-1.31134e-07 1 1 1.31134e-07 306.379 273.103)" fill="#0074FC"/>
<rect width="1.69095" height="1.69095" transform="matrix(-1.31134e-07 1 1 1.31134e-07 374.655 273.103)" fill="#0074FC"/>
<rect width="1.69095" height="1.69095" transform="matrix(-1.31134e-07 1 1 1.31134e-07 442.93 273.103)" fill="#0074FC"/>
<rect width="1.69095" height="1.69095" transform="matrix(-1.31134e-07 1 1 1.31134e-07 511.206 273.103)" fill="#0074FC"/>
<rect width="1.69095" height="1.69095" transform="matrix(-1.31134e-07 1 1 1.31134e-07 579.482 273.103)" fill="#0074FC"/>
<rect width="1.69095" height="1.69095" transform="matrix(-1.31134e-07 1 1 1.31134e-07 647.758 273.103)" fill="#0074FC"/>
<rect width="1.69095" height="1.69095" transform="matrix(-1.31134e-07 1 1 1.31134e-07 716.033 273.103)" fill="#0074FC"/>
<rect width="1.69095" height="1.69095" transform="matrix(-1.31134e-07 1 1 1.31134e-07 784.309 273.103)" fill="#0074FC"/>
<rect width="1.69095" height="1.69095" transform="matrix(-1.31134e-07 1 1 1.31134e-07 33.2759 341.379)" fill="#0074FC"/>
<rect width="1.69095" height="1.69095" transform="matrix(-1.31134e-07 1 1 1.31134e-07 101.552 341.379)" fill="#0074FC"/>
<rect width="1.69095" height="1.69095" transform="matrix(-1.31134e-07 1 1 1.31134e-07 169.827 341.379)" fill="#0074FC"/>
<rect width="1.69095" height="1.69095" transform="matrix(-1.31134e-07 1 1 1.31134e-07 238.103 341.379)" fill="#0074FC"/>
<rect width="1.69095" height="1.69095" transform="matrix(-1.31134e-07 1 1 1.31134e-07 306.379 341.379)" fill="#0074FC"/>
<rect width="1.69095" height="1.69095" transform="matrix(-1.31134e-07 1 1 1.31134e-07 374.655 341.379)" fill="#0074FC"/>
<rect width="1.69095" height="1.69095" transform="matrix(-1.31134e-07 1 1 1.31134e-07 442.93 341.379)" fill="#0074FC"/>
<rect width="1.69095" height="1.69095" transform="matrix(-1.31134e-07 1 1 1.31134e-07 511.206 341.379)" fill="#0074FC"/>
<rect width="1.69095" height="1.69095" transform="matrix(-1.31134e-07 1 1 1.31134e-07 579.482 341.379)" fill="#0074FC"/>
<rect width="1.69095" height="1.69095" transform="matrix(-1.31134e-07 1 1 1.31134e-07 647.758 341.379)" fill="#0074FC"/>
<rect width="1.69095" height="1.69095" transform="matrix(-1.31134e-07 1 1 1.31134e-07 716.033 341.379)" fill="#0074FC"/>
<rect width="1.69095" height="1.69095" transform="matrix(-1.31134e-07 1 1 1.31134e-07 784.309 341.379)" fill="#0074FC"/>
<rect width="1.69095" height="1.69095" transform="matrix(-1.31134e-07 1 1 1.31134e-07 33.2759 409.654)" fill="#0074FC"/>
<rect width="1.69095" height="1.69095" transform="matrix(-1.31134e-07 1 1 1.31134e-07 101.552 409.654)" fill="#0074FC"/>
<rect width="1.69095" height="1.69095" transform="matrix(-1.31134e-07 1 1 1.31134e-07 169.827 409.654)" fill="#0074FC"/>
<rect width="1.69095" height="1.69095" transform="matrix(-1.31134e-07 1 1 1.31134e-07 238.103 409.654)" fill="#0074FC"/>
<rect width="1.69095" height="1.69095" transform="matrix(-1.31134e-07 1 1 1.31134e-07 306.379 409.654)" fill="#0074FC"/>
<rect width="1.69095" height="1.69095" transform="matrix(-1.31134e-07 1 1 1.31134e-07 374.655 409.654)" fill="#0074FC"/>
<rect width="1.69095" height="1.69095" transform="matrix(-1.31134e-07 1 1 1.31134e-07 442.93 409.654)" fill="#0074FC"/>
<rect width="1.69095" height="1.69095" transform="matrix(-1.31134e-07 1 1 1.31134e-07 511.206 409.654)" fill="#0074FC"/>
<rect width="1.69095" height="1.69095" transform="matrix(-1.31134e-07 1 1 1.31134e-07 579.482 409.654)" fill="#0074FC"/>
<rect width="1.69095" height="1.69095" transform="matrix(-1.31134e-07 1 1 1.31134e-07 647.758 409.654)" fill="#0074FC"/>
<rect width="1.69095" height="1.69095" transform="matrix(-1.31134e-07 1 1 1.31134e-07 716.033 409.654)" fill="#0074FC"/>
<rect width="1.69095" height="1.69095" transform="matrix(-1.31134e-07 1 1 1.31134e-07 784.309 409.654)" fill="#0074FC"/>
</g>
<g opacity="0.3">
<rect width="1.69095" height="1.69095" transform="matrix(-1.31134e-07 1 1 1.31134e-07 841 0)" fill="#0074FC"/>
<rect width="1.69095" height="1.69095" transform="matrix(-1.31134e-07 1 1 1.31134e-07 909.276 0)" fill="#0074FC"/>
<rect width="1.69095" height="1.69095" transform="matrix(-1.31134e-07 1 1 1.31134e-07 977.552 0)" fill="#0074FC"/>
<rect width="1.69095" height="1.69095" transform="matrix(-1.31134e-07 1 1 1.31134e-07 1045.83 0)" fill="#0074FC"/>
<rect width="1.69095" height="1.69095" transform="matrix(-1.31134e-07 1 1 1.31134e-07 1114.1 0)" fill="#0074FC"/>
<rect width="1.69095" height="1.69095" transform="matrix(-1.31134e-07 1 1 1.31134e-07 1182.38 0)" fill="#0074FC"/>
<rect width="1.69095" height="1.69095" transform="matrix(-1.31134e-07 1 1 1.31134e-07 1250.65 0)" fill="#0074FC"/>
<rect width="1.69095" height="1.69095" transform="matrix(-1.31134e-07 1 1 1.31134e-07 1318.93 0)" fill="#0074FC"/>
<rect width="1.69095" height="1.69095" transform="matrix(-1.31134e-07 1 1 1.31134e-07 1387.21 0)" fill="#0074FC"/>
<rect width="1.69095" height="1.69095" transform="matrix(-1.31134e-07 1 1 1.31134e-07 841 68.2754)" fill="#0074FC"/>
<rect width="1.69095" height="1.69095" transform="matrix(-1.31134e-07 1 1 1.31134e-07 909.276 68.2754)" fill="#0074FC"/>
<rect width="1.69095" height="1.69095" transform="matrix(-1.31134e-07 1 1 1.31134e-07 977.552 68.2754)" fill="#0074FC"/>
<rect width="1.69095" height="1.69095" transform="matrix(-1.31134e-07 1 1 1.31134e-07 1045.83 68.2754)" fill="#0074FC"/>
<rect width="1.69095" height="1.69095" transform="matrix(-1.31134e-07 1 1 1.31134e-07 1114.1 68.2754)" fill="#0074FC"/>
<rect width="1.69095" height="1.69095" transform="matrix(-1.31134e-07 1 1 1.31134e-07 1182.38 68.2754)" fill="#0074FC"/>
<rect width="1.69095" height="1.69095" transform="matrix(-1.31134e-07 1 1 1.31134e-07 1250.65 68.2754)" fill="#0074FC"/>
<rect width="1.69095" height="1.69095" transform="matrix(-1.31134e-07 1 1 1.31134e-07 1318.93 68.2754)" fill="#0074FC"/>
<rect width="1.69095" height="1.69095" transform="matrix(-1.31134e-07 1 1 1.31134e-07 1387.21 68.2754)" fill="#0074FC"/>
<rect width="1.69095" height="1.69095" transform="matrix(-1.31134e-07 1 1 1.31134e-07 841 136.552)" fill="#0074FC"/>
<rect width="1.69095" height="1.69095" transform="matrix(-1.31134e-07 1 1 1.31134e-07 909.276 136.552)" fill="#0074FC"/>
<rect width="1.69095" height="1.69095" transform="matrix(-1.31134e-07 1 1 1.31134e-07 977.552 136.552)" fill="#0074FC"/>
<rect width="1.69095" height="1.69095" transform="matrix(-1.31134e-07 1 1 1.31134e-07 1045.83 136.552)" fill="#0074FC"/>
<rect width="1.69095" height="1.69095" transform="matrix(-1.31134e-07 1 1 1.31134e-07 1114.1 136.552)" fill="#0074FC"/>
<rect width="1.69095" height="1.69095" transform="matrix(-1.31134e-07 1 1 1.31134e-07 1182.38 136.552)" fill="#0074FC"/>
<rect width="1.69095" height="1.69095" transform="matrix(-1.31134e-07 1 1 1.31134e-07 1250.65 136.552)" fill="#0074FC"/>
<rect width="1.69095" height="1.69095" transform="matrix(-1.31134e-07 1 1 1.31134e-07 1318.93 136.552)" fill="#0074FC"/>
<rect width="1.69095" height="1.69095" transform="matrix(-1.31134e-07 1 1 1.31134e-07 1387.21 136.552)" fill="#0074FC"/>
<rect width="1.69095" height="1.69095" transform="matrix(-1.31134e-07 1 1 1.31134e-07 841 204.827)" fill="#0074FC"/>
<rect width="1.69095" height="1.69095" transform="matrix(-1.31134e-07 1 1 1.31134e-07 909.276 204.827)" fill="#0074FC"/>
<rect width="1.69095" height="1.69095" transform="matrix(-1.31134e-07 1 1 1.31134e-07 977.552 204.827)" fill="#0074FC"/>
<rect width="1.69095" height="1.69095" transform="matrix(-1.31134e-07 1 1 1.31134e-07 1045.83 204.827)" fill="#0074FC"/>
<rect width="1.69095" height="1.69095" transform="matrix(-1.31134e-07 1 1 1.31134e-07 1114.1 204.827)" fill="#0074FC"/>
<rect width="1.69095" height="1.69095" transform="matrix(-1.31134e-07 1 1 1.31134e-07 1182.38 204.827)" fill="#0074FC"/>
<rect width="1.69095" height="1.69095" transform="matrix(-1.31134e-07 1 1 1.31134e-07 1250.65 204.827)" fill="#0074FC"/>
<rect width="1.69095" height="1.69095" transform="matrix(-1.31134e-07 1 1 1.31134e-07 1318.93 204.827)" fill="#0074FC"/>
<rect width="1.69095" height="1.69095" transform="matrix(-1.31134e-07 1 1 1.31134e-07 1387.21 204.827)" fill="#0074FC"/>
<rect width="1.69095" height="1.69095" transform="matrix(-1.31134e-07 1 1 1.31134e-07 841 273.103)" fill="#0074FC"/>
<rect width="1.69095" height="1.69095" transform="matrix(-1.31134e-07 1 1 1.31134e-07 909.276 273.103)" fill="#0074FC"/>
<rect width="1.69095" height="1.69095" transform="matrix(-1.31134e-07 1 1 1.31134e-07 977.552 273.103)" fill="#0074FC"/>
<rect width="1.69095" height="1.69095" transform="matrix(-1.31134e-07 1 1 1.31134e-07 1045.83 273.103)" fill="#0074FC"/>
<rect width="1.69095" height="1.69095" transform="matrix(-1.31134e-07 1 1 1.31134e-07 1114.1 273.103)" fill="#0074FC"/>
<rect width="1.69095" height="1.69095" transform="matrix(-1.31134e-07 1 1 1.31134e-07 1182.38 273.103)" fill="#0074FC"/>
<rect width="1.69095" height="1.69095" transform="matrix(-1.31134e-07 1 1 1.31134e-07 1250.65 273.103)" fill="#0074FC"/>
<rect width="1.69095" height="1.69095" transform="matrix(-1.31134e-07 1 1 1.31134e-07 1318.93 273.103)" fill="#0074FC"/>
<rect width="1.69095" height="1.69095" transform="matrix(-1.31134e-07 1 1 1.31134e-07 1387.21 273.103)" fill="#0074FC"/>
<rect width="1.69095" height="1.69095" transform="matrix(-1.31134e-07 1 1 1.31134e-07 841 341.379)" fill="#0074FC"/>
<rect width="1.69095" height="1.69095" transform="matrix(-1.31134e-07 1 1 1.31134e-07 909.276 341.379)" fill="#0074FC"/>
<rect width="1.69095" height="1.69095" transform="matrix(-1.31134e-07 1 1 1.31134e-07 977.552 341.379)" fill="#0074FC"/>
<rect width="1.69095" height="1.69095" transform="matrix(-1.31134e-07 1 1 1.31134e-07 1045.83 341.379)" fill="#0074FC"/>
<rect width="1.69095" height="1.69095" transform="matrix(-1.31134e-07 1 1 1.31134e-07 1114.1 341.379)" fill="#0074FC"/>
<rect width="1.69095" height="1.69095" transform="matrix(-1.31134e-07 1 1 1.31134e-07 1182.38 341.379)" fill="#0074FC"/>
<rect width="1.69095" height="1.69095" transform="matrix(-1.31134e-07 1 1 1.31134e-07 1250.65 341.379)" fill="#0074FC"/>
<rect width="1.69095" height="1.69095" transform="matrix(-1.31134e-07 1 1 1.31134e-07 1318.93 341.379)" fill="#0074FC"/>
<rect width="1.69095" height="1.69095" transform="matrix(-1.31134e-07 1 1 1.31134e-07 1387.21 341.379)" fill="#0074FC"/>
<rect width="1.69095" height="1.69095" transform="matrix(-1.31134e-07 1 1 1.31134e-07 841 409.654)" fill="#0074FC"/>
<rect width="1.69095" height="1.69095" transform="matrix(-1.31134e-07 1 1 1.31134e-07 909.276 409.654)" fill="#0074FC"/>
<rect width="1.69095" height="1.69095" transform="matrix(-1.31134e-07 1 1 1.31134e-07 977.552 409.654)" fill="#0074FC"/>
<rect width="1.69095" height="1.69095" transform="matrix(-1.31134e-07 1 1 1.31134e-07 1045.83 409.654)" fill="#0074FC"/>
<rect width="1.69095" height="1.69095" transform="matrix(-1.31134e-07 1 1 1.31134e-07 1114.1 409.654)" fill="#0074FC"/>
<rect width="1.69095" height="1.69095" transform="matrix(-1.31134e-07 1 1 1.31134e-07 1182.38 409.654)" fill="#0074FC"/>
<rect width="1.69095" height="1.69095" transform="matrix(-1.31134e-07 1 1 1.31134e-07 1250.65 409.654)" fill="#0074FC"/>
<rect width="1.69095" height="1.69095" transform="matrix(-1.31134e-07 1 1 1.31134e-07 1318.93 409.654)" fill="#0074FC"/>
<rect width="1.69095" height="1.69095" transform="matrix(-1.31134e-07 1 1 1.31134e-07 1387.21 409.654)" fill="#0074FC"/>
</g>
<g opacity="0.3">
<rect width="1.69095" height="1.69095" transform="matrix(-1.31134e-07 1 1 1.31134e-07 33.2759 474)" fill="#0074FC"/>
<rect width="1.69095" height="1.69095" transform="matrix(-1.31134e-07 1 1 1.31134e-07 101.552 474)" fill="#0074FC"/>
<rect width="1.69095" height="1.69095" transform="matrix(-1.31134e-07 1 1 1.31134e-07 169.827 474)" fill="#0074FC"/>
<rect width="1.69095" height="1.69095" transform="matrix(-1.31134e-07 1 1 1.31134e-07 238.103 474)" fill="#0074FC"/>
<rect width="1.69095" height="1.69095" transform="matrix(-1.31134e-07 1 1 1.31134e-07 306.379 474)" fill="#0074FC"/>
<rect width="1.69095" height="1.69095" transform="matrix(-1.31134e-07 1 1 1.31134e-07 374.655 474)" fill="#0074FC"/>
<rect width="1.69095" height="1.69095" transform="matrix(-1.31134e-07 1 1 1.31134e-07 442.93 474)" fill="#0074FC"/>
<rect width="1.69095" height="1.69095" transform="matrix(-1.31134e-07 1 1 1.31134e-07 511.206 474)" fill="#0074FC"/>
<rect width="1.69095" height="1.69095" transform="matrix(-1.31134e-07 1 1 1.31134e-07 579.482 474)" fill="#0074FC"/>
<rect width="1.69095" height="1.69095" transform="matrix(-1.31134e-07 1 1 1.31134e-07 647.758 474)" fill="#0074FC"/>
<rect width="1.69095" height="1.69095" transform="matrix(-1.31134e-07 1 1 1.31134e-07 716.033 474)" fill="#0074FC"/>
<rect width="1.69095" height="1.69095" transform="matrix(-1.31134e-07 1 1 1.31134e-07 784.309 474)" fill="#0074FC"/>
<rect width="1.69095" height="1.69095" transform="matrix(-1.31134e-07 1 1 1.31134e-07 33.2759 542.275)" fill="#0074FC"/>
<rect width="1.69095" height="1.69095" transform="matrix(-1.31134e-07 1 1 1.31134e-07 101.552 542.275)" fill="#0074FC"/>
<rect width="1.69095" height="1.69095" transform="matrix(-1.31134e-07 1 1 1.31134e-07 169.827 542.275)" fill="#0074FC"/>
<rect width="1.69095" height="1.69095" transform="matrix(-1.31134e-07 1 1 1.31134e-07 238.103 542.275)" fill="#0074FC"/>
<rect width="1.69095" height="1.69095" transform="matrix(-1.31134e-07 1 1 1.31134e-07 306.379 542.275)" fill="#0074FC"/>
<rect width="1.69095" height="1.69095" transform="matrix(-1.31134e-07 1 1 1.31134e-07 374.655 542.275)" fill="#0074FC"/>
<rect width="1.69095" height="1.69095" transform="matrix(-1.31134e-07 1 1 1.31134e-07 442.93 542.275)" fill="#0074FC"/>
<rect width="1.69095" height="1.69095" transform="matrix(-1.31134e-07 1 1 1.31134e-07 511.206 542.275)" fill="#0074FC"/>
<rect width="1.69095" height="1.69095" transform="matrix(-1.31134e-07 1 1 1.31134e-07 579.482 542.275)" fill="#0074FC"/>
<rect width="1.69095" height="1.69095" transform="matrix(-1.31134e-07 1 1 1.31134e-07 647.758 542.275)" fill="#0074FC"/>
<rect width="1.69095" height="1.69095" transform="matrix(-1.31134e-07 1 1 1.31134e-07 716.033 542.275)" fill="#0074FC"/>
<rect width="1.69095" height="1.69095" transform="matrix(-1.31134e-07 1 1 1.31134e-07 784.309 542.275)" fill="#0074FC"/>
<rect width="1.69095" height="1.69095" transform="matrix(-1.31134e-07 1 1 1.31134e-07 33.2759 610.552)" fill="#0074FC"/>
<rect width="1.69095" height="1.69095" transform="matrix(-1.31134e-07 1 1 1.31134e-07 101.552 610.552)" fill="#0074FC"/>
<rect width="1.69095" height="1.69095" transform="matrix(-1.31134e-07 1 1 1.31134e-07 169.827 610.552)" fill="#0074FC"/>
<rect width="1.69095" height="1.69095" transform="matrix(-1.31134e-07 1 1 1.31134e-07 238.103 610.552)" fill="#0074FC"/>
<rect width="1.69095" height="1.69095" transform="matrix(-1.31134e-07 1 1 1.31134e-07 306.379 610.552)" fill="#0074FC"/>
<rect width="1.69095" height="1.69095" transform="matrix(-1.31134e-07 1 1 1.31134e-07 374.655 610.552)" fill="#0074FC"/>
<rect width="1.69095" height="1.69095" transform="matrix(-1.31134e-07 1 1 1.31134e-07 442.93 610.552)" fill="#0074FC"/>
<rect width="1.69095" height="1.69095" transform="matrix(-1.31134e-07 1 1 1.31134e-07 511.206 610.552)" fill="#0074FC"/>
<rect width="1.69095" height="1.69095" transform="matrix(-1.31134e-07 1 1 1.31134e-07 579.482 610.552)" fill="#0074FC"/>
<rect width="1.69095" height="1.69095" transform="matrix(-1.31134e-07 1 1 1.31134e-07 647.758 610.552)" fill="#0074FC"/>
<rect width="1.69095" height="1.69095" transform="matrix(-1.31134e-07 1 1 1.31134e-07 716.033 610.552)" fill="#0074FC"/>
<rect width="1.69095" height="1.69095" transform="matrix(-1.31134e-07 1 1 1.31134e-07 784.309 610.552)" fill="#0074FC"/>
<rect width="1.69095" height="1.69095" transform="matrix(-1.31134e-07 1 1 1.31134e-07 33.2759 678.827)" fill="#0074FC"/>
<rect width="1.69095" height="1.69095" transform="matrix(-1.31134e-07 1 1 1.31134e-07 101.552 678.827)" fill="#0074FC"/>
<rect width="1.69095" height="1.69095" transform="matrix(-1.31134e-07 1 1 1.31134e-07 169.827 678.827)" fill="#0074FC"/>
<rect width="1.69095" height="1.69095" transform="matrix(-1.31134e-07 1 1 1.31134e-07 238.103 678.827)" fill="#0074FC"/>
<rect width="1.69095" height="1.69095" transform="matrix(-1.31134e-07 1 1 1.31134e-07 306.379 678.827)" fill="#0074FC"/>
<rect width="1.69095" height="1.69095" transform="matrix(-1.31134e-07 1 1 1.31134e-07 374.655 678.827)" fill="#0074FC"/>
<rect width="1.69095" height="1.69095" transform="matrix(-1.31134e-07 1 1 1.31134e-07 442.93 678.827)" fill="#0074FC"/>
<rect width="1.69095" height="1.69095" transform="matrix(-1.31134e-07 1 1 1.31134e-07 511.206 678.827)" fill="#0074FC"/>
<rect width="1.69095" height="1.69095" transform="matrix(-1.31134e-07 1 1 1.31134e-07 579.482 678.827)" fill="#0074FC"/>
<rect width="1.69095" height="1.69095" transform="matrix(-1.31134e-07 1 1 1.31134e-07 647.758 678.827)" fill="#0074FC"/>
<rect width="1.69095" height="1.69095" transform="matrix(-1.31134e-07 1 1 1.31134e-07 716.033 678.827)" fill="#0074FC"/>
<rect width="1.69095" height="1.69095" transform="matrix(-1.31134e-07 1 1 1.31134e-07 784.309 678.827)" fill="#0074FC"/>
</g>
<g opacity="0.3">
<rect width="1.69095" height="1.69095" transform="matrix(-1.31134e-07 1 1 1.31134e-07 841 474)" fill="#0074FC"/>
<rect width="1.69095" height="1.69095" transform="matrix(-1.31134e-07 1 1 1.31134e-07 909.276 474)" fill="#0074FC"/>
<rect width="1.69095" height="1.69095" transform="matrix(-1.31134e-07 1 1 1.31134e-07 977.552 474)" fill="#0074FC"/>
<rect width="1.69095" height="1.69095" transform="matrix(-1.31134e-07 1 1 1.31134e-07 1045.83 474)" fill="#0074FC"/>
<rect width="1.69095" height="1.69095" transform="matrix(-1.31134e-07 1 1 1.31134e-07 1114.1 474)" fill="#0074FC"/>
<rect width="1.69095" height="1.69095" transform="matrix(-1.31134e-07 1 1 1.31134e-07 1182.38 474)" fill="#0074FC"/>
<rect width="1.69095" height="1.69095" transform="matrix(-1.31134e-07 1 1 1.31134e-07 1250.65 474)" fill="#0074FC"/>
<rect width="1.69095" height="1.69095" transform="matrix(-1.31134e-07 1 1 1.31134e-07 1318.93 474)" fill="#0074FC"/>
<rect width="1.69095" height="1.69095" transform="matrix(-1.31134e-07 1 1 1.31134e-07 1387.21 474)" fill="#0074FC"/>
<rect width="1.69095" height="1.69095" transform="matrix(-1.31134e-07 1 1 1.31134e-07 841 542.275)" fill="#0074FC"/>
<rect width="1.69095" height="1.69095" transform="matrix(-1.31134e-07 1 1 1.31134e-07 909.276 542.275)" fill="#0074FC"/>
<rect width="1.69095" height="1.69095" transform="matrix(-1.31134e-07 1 1 1.31134e-07 977.552 542.275)" fill="#0074FC"/>
<rect width="1.69095" height="1.69095" transform="matrix(-1.31134e-07 1 1 1.31134e-07 1045.83 542.275)" fill="#0074FC"/>
<rect width="1.69095" height="1.69095" transform="matrix(-1.31134e-07 1 1 1.31134e-07 1114.1 542.275)" fill="#0074FC"/>
<rect width="1.69095" height="1.69095" transform="matrix(-1.31134e-07 1 1 1.31134e-07 1182.38 542.275)" fill="#0074FC"/>
<rect width="1.69095" height="1.69095" transform="matrix(-1.31134e-07 1 1 1.31134e-07 1250.65 542.275)" fill="#0074FC"/>
<rect width="1.69095" height="1.69095" transform="matrix(-1.31134e-07 1 1 1.31134e-07 1318.93 542.275)" fill="#0074FC"/>
<rect width="1.69095" height="1.69095" transform="matrix(-1.31134e-07 1 1 1.31134e-07 1387.21 542.275)" fill="#0074FC"/>
<rect width="1.69095" height="1.69095" transform="matrix(-1.31134e-07 1 1 1.31134e-07 841 610.552)" fill="#0074FC"/>
<rect width="1.69095" height="1.69095" transform="matrix(-1.31134e-07 1 1 1.31134e-07 909.276 610.552)" fill="#0074FC"/>
<rect width="1.69095" height="1.69095" transform="matrix(-1.31134e-07 1 1 1.31134e-07 977.552 610.552)" fill="#0074FC"/>
<rect width="1.69095" height="1.69095" transform="matrix(-1.31134e-07 1 1 1.31134e-07 1045.83 610.552)" fill="#0074FC"/>
<rect width="1.69095" height="1.69095" transform="matrix(-1.31134e-07 1 1 1.31134e-07 1114.1 610.552)" fill="#0074FC"/>
<rect width="1.69095" height="1.69095" transform="matrix(-1.31134e-07 1 1 1.31134e-07 1182.38 610.552)" fill="#0074FC"/>
<rect width="1.69095" height="1.69095" transform="matrix(-1.31134e-07 1 1 1.31134e-07 1250.65 610.552)" fill="#0074FC"/>
<rect width="1.69095" height="1.69095" transform="matrix(-1.31134e-07 1 1 1.31134e-07 1318.93 610.552)" fill="#0074FC"/>
<rect width="1.69095" height="1.69095" transform="matrix(-1.31134e-07 1 1 1.31134e-07 1387.21 610.552)" fill="#0074FC"/>
<rect width="1.69095" height="1.69095" transform="matrix(-1.31134e-07 1 1 1.31134e-07 841 678.827)" fill="#0074FC"/>
<rect width="1.69095" height="1.69095" transform="matrix(-1.31134e-07 1 1 1.31134e-07 909.276 678.827)" fill="#0074FC"/>
<rect width="1.69095" height="1.69095" transform="matrix(-1.31134e-07 1 1 1.31134e-07 977.552 678.827)" fill="#0074FC"/>
<rect width="1.69095" height="1.69095" transform="matrix(-1.31134e-07 1 1 1.31134e-07 1045.83 678.827)" fill="#0074FC"/>
<rect width="1.69095" height="1.69095" transform="matrix(-1.31134e-07 1 1 1.31134e-07 1114.1 678.827)" fill="#0074FC"/>
<rect width="1.69095" height="1.69095" transform="matrix(-1.31134e-07 1 1 1.31134e-07 1182.38 678.827)" fill="#0074FC"/>
<rect width="1.69095" height="1.69095" transform="matrix(-1.31134e-07 1 1 1.31134e-07 1250.65 678.827)" fill="#0074FC"/>
<rect width="1.69095" height="1.69095" transform="matrix(-1.31134e-07 1 1 1.31134e-07 1318.93 678.827)" fill="#0074FC"/>
<rect width="1.69095" height="1.69095" transform="matrix(-1.31134e-07 1 1 1.31134e-07 1387.21 678.827)" fill="#0074FC"/>
</g>
</svg>
