<svg width="48" height="48" viewBox="0 0 48 48" fill="none" xmlns="http://www.w3.org/2000/svg">
<path d="M17.8 42H9C8.2 42 7.5 41.7 6.9 41.1C6.3 40.5 6 39.8 6 39V30.2C7.46667 30.0333 8.725 29.4583 9.775 28.475C10.825 27.4917 11.35 26.2833 11.35 24.85C11.35 23.4167 10.825 22.2083 9.775 21.225C8.725 20.2417 7.46667 19.6667 6 19.5V10.7C6 9.9 6.3 9.2 6.9 8.6C7.5 8 8.2 7.7 9 7.7H17.85C18.2167 6.36667 18.875 5.25 19.825 4.35C20.775 3.45 21.9167 3 23.25 3C24.5833 3 25.725 3.45 26.675 4.35C27.625 5.25 28.2833 6.36667 28.65 7.7H37.3C38.1 7.7 38.8 8 39.4 8.6C40 9.2 40.3 9.9 40.3 10.7V19.35C41.6333 19.7167 42.725 20.4083 43.575 21.425C44.425 22.4417 44.85 23.6167 44.85 24.95C44.85 26.2833 44.425 27.4 43.575 28.3C42.725 29.2 41.6333 29.8333 40.3 30.2V39C40.3 39.8 40 40.5 39.4 41.1C38.8 41.7 38.1 42 37.3 42H28.5C28.3333 40.4 27.7417 39.1083 26.725 38.125C25.7083 37.1417 24.5167 36.65 23.15 36.65C21.7833 36.65 20.5917 37.1417 19.575 38.125C18.5583 39.1083 17.9667 40.4 17.8 42ZM9 39H15.5C16.3333 36.9667 17.5 35.5667 19 34.8C20.5 34.0333 21.8833 33.65 23.15 33.65C24.4167 33.65 25.8 34.0333 27.3 34.8C28.8 35.5667 29.9667 36.9667 30.8 39H37.3V27.25H39.55C40.2167 27.25 40.7667 27.0333 41.2 26.6C41.6333 26.1667 41.85 25.6167 41.85 24.95C41.85 24.2833 41.6333 23.7333 41.2 23.3C40.7667 22.8667 40.2167 22.65 39.55 22.65H37.3V10.7H25.55V8.3C25.55 7.63333 25.3333 7.08333 24.9 6.65C24.4667 6.21667 23.9167 6 23.25 6C22.5833 6 22.0333 6.21667 21.6 6.65C21.1667 7.08333 20.95 7.63333 20.95 8.3V10.7H9V17.2C10.6 17.8 11.8917 18.8 12.875 20.2C13.8583 21.6 14.35 23.15 14.35 24.85C14.35 26.55 13.8583 28.1 12.875 29.5C11.8917 30.9 10.6 31.9 9 32.5V39Z" fill="#0074FC"/>
</svg>
