<svg width="45" height="42" viewBox="0 0 45 42" fill="none" xmlns="http://www.w3.org/2000/svg">
<path d="M20 1L37.3205 11V31L20 41L2.67949 31V11L20 1Z" stroke="#0074FC"/>
<path d="M37.2092 7.51172L43.654 11.2326V18.6745L37.2092 22.3954L30.7644 18.6745V11.2326L37.2092 7.51172Z" fill="#121212" stroke="#0074FC"/>
<path d="M9.76733 25.6514L14.8836 25.6514L19.9998 28.4421L25.1161 25.6514L30.2325 25.6514L30.2325 34.9537L19.9998 41.0002L9.76733 34.9537V25.6514Z" stroke="#0074FC"/>
<path d="M19.9999 11.2324L25.2363 14.2557V20.3022L19.9999 23.3254L14.7634 20.3022V14.2557L19.9999 11.2324Z" fill="#121212" stroke="#0074FC"/>
<path d="M33.4885 14.9531L40.9304 14.9532" stroke="#0074FC"/>
<path d="M37.2095 11.2324L37.2094 18.6743" stroke="#0074FC"/>
</svg>
