<svg width="33" height="42" viewBox="0 0 33 42" fill="none" xmlns="http://www.w3.org/2000/svg">
<path d="M16.2173 1L27.1368 7.30435V19.913L16.2173 26.2174L5.29789 19.913V7.30435L16.2173 1Z" stroke="#0074FC"/>
<rect x="1" y="19.2607" width="31.3043" height="21.7391" fill="#121212" stroke="#0074FC"/>
<mask id="path-3-outside-1" maskUnits="userSpaceOnUse" x="13.4509" y="22.4775" width="8" height="13" fill="black">
<rect fill="white" x="13.4509" y="22.4775" width="8" height="13"/>
<path fill-rule="evenodd" clip-rule="evenodd" d="M17.0867 24.4775L19.7224 25.9993V29.0428L18.1754 29.9359L19.3565 34.0432H14.8183L15.9992 29.9367L14.4509 29.0428V25.9993L17.0867 24.4775Z"/>
</mask>
<path d="M19.7224 25.9993H20.7224V25.4219L20.2224 25.1333L19.7224 25.9993ZM17.0867 24.4775L17.5867 23.6115L17.0867 23.3228L16.5867 23.6115L17.0867 24.4775ZM19.7224 29.0428L20.2224 29.9088L20.7224 29.6201V29.0428H19.7224ZM18.1754 29.9359L17.6754 29.0699L16.9982 29.4609L17.2143 30.2123L18.1754 29.9359ZM19.3565 34.0432V35.0432H20.6846L20.3175 33.7668L19.3565 34.0432ZM14.8183 34.0432L13.8572 33.7668L13.4902 35.0432H14.8183V34.0432ZM15.9992 29.9367L16.9603 30.213L17.1764 29.4616L16.4992 29.0706L15.9992 29.9367ZM14.4509 29.0428H13.4509V29.6201L13.9509 29.9088L14.4509 29.0428ZM14.4509 25.9993L13.9509 25.1333L13.4509 25.4219V25.9993H14.4509ZM20.2224 25.1333L17.5867 23.6115L16.5867 25.3436L19.2224 26.8653L20.2224 25.1333ZM20.7224 29.0428V25.9993H18.7224V29.0428H20.7224ZM18.6754 30.802L20.2224 29.9088L19.2224 28.1767L17.6754 29.0699L18.6754 30.802ZM17.2143 30.2123L18.3954 34.3196L20.3175 33.7668L19.1364 29.6596L17.2143 30.2123ZM19.3565 33.0432H14.8183V35.0432H19.3565V33.0432ZM15.7793 34.3196L16.9603 30.213L15.0382 29.6603L13.8572 33.7668L15.7793 34.3196ZM13.9509 29.9088L15.4992 30.8027L16.4992 29.0706L14.9509 28.1767L13.9509 29.9088ZM13.4509 25.9993V29.0428H15.4509V25.9993H13.4509ZM16.5867 23.6115L13.9509 25.1333L14.9509 26.8653L17.5867 25.3436L16.5867 23.6115Z" fill="#0074FC" mask="url(#path-3-outside-1)"/>
</svg>
