<svg width="43" height="45" viewBox="0 0 43 45" fill="none" xmlns="http://www.w3.org/2000/svg">
<mask id="mask0" mask-type="alpha" maskUnits="userSpaceOnUse" x="2" y="1" width="39" height="43">
<path d="M21.5 1L40.1195 11.75V33.25L21.5 44L2.88045 33.25V11.75L21.5 1Z" fill="#C4C4C4"/>
</mask>
<g mask="url(#mask0)">
<rect width="2.20341" height="2.20341" transform="matrix(-1.31134e-07 1 1 1.31134e-07 11.5142 2.12036)" fill="#0074FC"/>
<rect width="2.20341" height="2.20341" transform="matrix(-1.31134e-07 1 1 1.31134e-07 22.0901 2.12036)" fill="#0074FC"/>
<rect width="2.20341" height="2.20341" transform="matrix(-1.31134e-07 1 1 1.31134e-07 28.2571 2.12036)" fill="#0074FC"/>
<rect width="2.20341" height="2.20341" transform="matrix(-1.31134e-07 1 1 1.31134e-07 33.5479 2.12036)" fill="#0074FC"/>
<rect width="2.20341" height="2.20341" transform="matrix(-1.31134e-07 1 1 1.31134e-07 11.5142 7.40918)" fill="#0074FC"/>
<rect width="2.20341" height="2.20341" transform="matrix(-1.31134e-07 1 1 1.31134e-07 16.801 7.40918)" fill="#0074FC"/>
<rect width="2.20341" height="2.20341" transform="matrix(-1.31134e-07 1 1 1.31134e-07 22.0901 7.40918)" fill="#0074FC"/>
<rect width="2.20341" height="2.20341" transform="matrix(-1.31134e-07 1 1 1.31134e-07 28.2571 7.40918)" fill="#0074FC"/>
<rect width="2.20341" height="2.20341" transform="matrix(-1.31134e-07 1 1 1.31134e-07 0.817383 2.12036)" fill="#0074FC"/>
<rect width="2.20341" height="2.20341" transform="matrix(-1.31134e-07 1 1 1.31134e-07 0.818115 7.40942)" fill="#0074FC"/>
<rect width="2.20341" height="2.20341" transform="matrix(-1.31134e-07 1 1 1.31134e-07 11.5142 43.4248)" fill="#0074FC"/>
<rect width="2.20341" height="2.20341" transform="matrix(-1.31134e-07 1 1 1.31134e-07 22.0901 43.4248)" fill="#0074FC"/>
<rect width="2.20341" height="2.20341" transform="matrix(-1.31134e-07 1 1 1.31134e-07 28.259 43.4248)" fill="#0074FC"/>
<rect width="2.20341" height="2.20341" transform="matrix(-1.31134e-07 1 1 1.31134e-07 11.5142 12.1858)" fill="#0074FC"/>
<rect width="2.20341" height="2.20341" transform="matrix(-1.31134e-07 1 1 1.31134e-07 22.0879 12.1858)" fill="#0074FC"/>
<rect width="2.20341" height="2.20341" transform="matrix(-1.31134e-07 1 1 1.31134e-07 22.0884 23)" fill="#0074FC"/>
<rect width="2.20341" height="2.20341" transform="matrix(-1.31134e-07 1 1 1.31134e-07 28.259 12.1858)" fill="#0074FC"/>
<rect width="2.20341" height="2.20341" transform="matrix(-1.31134e-07 1 1 1.31134e-07 5.78369 17.4741)" fill="#0074FC"/>
<rect width="2.20341" height="2.20341" transform="matrix(-1.31134e-07 1 1 1.31134e-07 11.5142 17.4739)" fill="#0074FC"/>
<rect width="2.20341" height="2.20341" transform="matrix(-1.31134e-07 1 1 1.31134e-07 16.801 17.4739)" fill="#0074FC"/>
<rect width="2.20341" height="2.20341" transform="matrix(-1.31134e-07 1 1 1.31134e-07 28.259 17.4739)" fill="#0074FC"/>
<rect width="2.20341" height="2.20341" transform="matrix(-1.31134e-07 1 1 1.31134e-07 33.5479 17.4739)" fill="#0074FC"/>
<rect width="2.20341" height="2.20341" transform="matrix(-1.31134e-07 1 1 1.31134e-07 11.5142 23)" fill="#0074FC"/>
<rect width="2.20341" height="2.20341" transform="matrix(-1.31134e-07 1 1 1.31134e-07 33.5479 22.7625)" fill="#0074FC"/>
<rect width="2.20341" height="2.20341" transform="matrix(-1.31134e-07 1 1 1.31134e-07 5.78369 28.051)" fill="#0074FC"/>
<rect width="2.20341" height="2.20341" transform="matrix(-1.31134e-07 1 1 1.31134e-07 11.5142 28.0503)" fill="#0074FC"/>
<rect width="2.20341" height="2.20341" transform="matrix(-1.31134e-07 1 1 1.31134e-07 16.801 28.0503)" fill="#0074FC"/>
<rect width="2.20341" height="2.20341" transform="matrix(-1.31134e-07 1 1 1.31134e-07 22.0879 28.0503)" fill="#0074FC"/>
<rect width="2.20341" height="2.20341" transform="matrix(-1.31134e-07 1 1 1.31134e-07 28.259 28.0503)" fill="#0074FC"/>
<rect width="2.20341" height="2.20341" transform="matrix(-1.31134e-07 1 1 1.31134e-07 33.5479 28.0503)" fill="#0074FC"/>
<rect width="2.20341" height="2.20341" transform="matrix(-1.31134e-07 1 1 1.31134e-07 11.5142 33.3381)" fill="#0074FC"/>
<rect width="2.20341" height="2.20341" transform="matrix(-1.31134e-07 1 1 1.31134e-07 22.0879 33.3381)" fill="#0074FC"/>
<rect width="2.20341" height="2.20341" transform="matrix(-1.31134e-07 1 1 1.31134e-07 28.259 33.3381)" fill="#0074FC"/>
<rect width="2.20341" height="2.20341" transform="matrix(-1.31134e-07 1 1 1.31134e-07 33.5479 33.3381)" fill="#0074FC"/>
<rect width="2.20341" height="2.20341" transform="matrix(-1.31134e-07 1 1 1.31134e-07 16.801 38.6265)" fill="#0074FC"/>
<rect width="2.20341" height="2.20341" transform="matrix(-1.31134e-07 1 1 1.31134e-07 22.0901 38.6265)" fill="#0074FC"/>
<rect width="2.20341" height="2.20341" transform="matrix(-1.31134e-07 1 1 1.31134e-07 33.5479 38.6265)" fill="#0074FC"/>
<rect width="2.20341" height="2.20341" transform="matrix(-1.31134e-07 1 1 1.31134e-07 0.817383 17.4739)" fill="#0074FC"/>
<rect width="2.20341" height="2.20341" transform="matrix(-1.31134e-07 1 1 1.31134e-07 0.817383 22.762)" fill="#0074FC"/>
<rect width="2.20341" height="2.20341" transform="matrix(-1.31134e-07 1 1 1.31134e-07 0.817383 28.0503)" fill="#0074FC"/>
<rect width="2.20341" height="2.20341" transform="matrix(-1.31134e-07 1 1 1.31134e-07 0.817383 33.3381)" fill="#0074FC"/>
<rect width="2.20341" height="2.20341" transform="matrix(-1.31134e-07 1 1 1.31134e-07 0.820068 38.6265)" fill="#0074FC"/>
<rect width="2.20341" height="2.20341" transform="matrix(-1.31134e-07 1 1 1.31134e-07 33.8108 2.12183)" fill="#0074FC"/>
<rect width="2.20341" height="2.20341" transform="matrix(-1.31134e-07 1 1 1.31134e-07 39.0996 7.40967)" fill="#0074FC"/>
<rect width="2.20341" height="2.20341" transform="matrix(-1.31134e-07 1 1 1.31134e-07 33.8108 43.4243)" fill="#0074FC"/>
<rect width="2.20341" height="2.20341" transform="matrix(-1.31134e-07 1 1 1.31134e-07 33.8108 12.1851)" fill="#0074FC"/>
<rect width="2.20341" height="2.20341" transform="matrix(-1.31134e-07 1 1 1.31134e-07 28.0818 17.4729)" fill="#0074FC"/>
<rect width="2.20341" height="2.20341" transform="matrix(-1.31134e-07 1 1 1.31134e-07 33.8108 17.4729)" fill="#0074FC"/>
<rect width="2.20341" height="2.20341" transform="matrix(-1.31134e-07 1 1 1.31134e-07 33.8108 23)" fill="#0074FC"/>
<rect width="2.20341" height="2.20341" transform="matrix(-1.31134e-07 1 1 1.31134e-07 28.0818 28.0498)" fill="#0074FC"/>
<rect width="2.20341" height="2.20341" transform="matrix(-1.31134e-07 1 1 1.31134e-07 33.8108 28.0498)" fill="#0074FC"/>
<rect width="2.20341" height="2.20341" transform="matrix(-1.31134e-07 1 1 1.31134e-07 33.8108 33.3381)" fill="#0074FC"/>
<rect width="2.20341" height="2.20341" transform="matrix(-1.31134e-07 1 1 1.31134e-07 33.8108 38.626)" fill="#0074FC"/>
<rect width="2.20341" height="2.20341" transform="matrix(-1.31134e-07 1 1 1.31134e-07 39.1016 38.626)" fill="#0074FC"/>
</g>
<path d="M21.5 1L40.1195 11.75V33.25L21.5 44L2.88045 33.25V11.75L21.5 1Z" stroke="#0074FC"/>
</svg>
