<svg width="48" height="48" viewBox="0 0 48 48" fill="none" xmlns="http://www.w3.org/2000/svg">
<path d="M25.8 44C25.4 44 25.0167 43.9417 24.65 43.825C24.2833 43.7083 23.9333 43.4833 23.6 43.15L4.85 24.4C4.51667 24.0667 4.29167 23.7167 4.175 23.35C4.05833 22.9833 4 22.6 4 22.2V7C4 6.13333 4.28333 5.41667 4.85 4.85C5.41667 4.28333 6.13333 4 7 4H22.2C22.6 4 23 4.05833 23.4 4.175C23.8 4.29167 24.1667 4.51667 24.5 4.85L43.15 23.5C43.8167 24.1667 44.15 24.9083 44.15 25.725C44.15 26.5417 43.8167 27.2833 43.15 27.95L27.95 43.15C27.6833 43.4167 27.3583 43.625 26.975 43.775C26.5917 43.925 26.2 44 25.8 44ZM25.9 41.1L41.1 25.9L22.2 7H7V22.2L25.9 41.1ZM12.25 14.8C12.95 14.8 13.5583 14.5417 14.075 14.025C14.5917 13.5083 14.85 12.9 14.85 12.2C14.85 11.5 14.5917 10.8917 14.075 10.375C13.5583 9.85833 12.95 9.6 12.25 9.6C11.55 9.6 10.9417 9.85833 10.425 10.375C9.90833 10.8917 9.65 11.5 9.65 12.2C9.65 12.9 9.90833 13.5083 10.425 14.025C10.9417 14.5417 11.55 14.8 12.25 14.8V14.8Z" fill="#0074FC"/>
</svg>
