<svg width="696" height="655" viewBox="0 0 696 655" fill="none" xmlns="http://www.w3.org/2000/svg">
<path d="M2 2H694V177H2V2Z" stroke="white" stroke-width="3"/>
<path d="M218 32H657V94H218V32Z" stroke="white" stroke-width="3"/>
<path d="M218 115H298V147H218V115Z" stroke="white" stroke-width="3"/>
<path d="M335 115H368V147H335V115Z" stroke="white" stroke-width="3"/>
<path d="M405 115H657V147H405V115Z" stroke="white" stroke-width="3"/>
<path d="M40 32H164V147H40V32Z" stroke="white" stroke-width="3"/>
<path d="M2 478H694V653H2V478Z" stroke="white" stroke-width="3"/>
<path d="M218 508H657V570H218V508Z" stroke="white" stroke-width="3"/>
<path d="M218 591H298V623H218V591Z" stroke="white" stroke-width="3"/>
<path d="M335 591H368V623H335V591Z" stroke="white" stroke-width="3"/>
<path d="M405 591H657V623H405V591Z" stroke="white" stroke-width="3"/>
<path d="M40 508H164V623H40V508Z" stroke="white" stroke-width="3"/>
<path d="M2 240H694V415H2V240Z" stroke="white" stroke-width="3"/>
<path d="M218 270H657V332H218V270Z" stroke="white" stroke-width="3"/>
<path d="M218 353H298V385H218V353Z" stroke="white" stroke-width="3"/>
<path d="M335 353H368V385H335V353Z" stroke="white" stroke-width="3"/>
<path d="M405 353H657V385H405V353Z" stroke="white" stroke-width="3"/>
<path d="M40 270H164V385H40V270Z" stroke="white" stroke-width="3"/>
</svg>
