<svg width="48" height="48" viewBox="0 0 48 48" fill="none" xmlns="http://www.w3.org/2000/svg">
<path d="M6.2002 19.65C6.2002 16.95 6.76686 14.3917 7.9002 11.975C9.03353 9.55833 10.6502 7.5 12.7502 5.8L14.8002 8.05C13.0335 9.48333 11.6585 11.2083 10.6752 13.225C9.69186 15.2417 9.2002 17.3833 9.2002 19.65H6.2002ZM38.8502 19.65C38.8502 17.3833 38.3835 15.2417 37.4502 13.225C36.5169 11.2083 35.1669 9.48333 33.4002 8.05L35.4502 5.8C37.5169 7.53333 39.1002 9.6 40.2002 12C41.3002 14.4 41.8502 16.95 41.8502 19.65H38.8502ZM8.0002 38V35H12.2002V19.7C12.2002 16.9667 13.0252 14.4917 14.6752 12.275C16.3252 10.0583 18.5002 8.66667 21.2002 8.1V6.65C21.2002 5.88333 21.4752 5.25 22.0252 4.75C22.5752 4.25 23.2335 4 24.0002 4C24.7669 4 25.4252 4.25 25.9752 4.75C26.5252 5.25 26.8002 5.88333 26.8002 6.65V8.1C29.5002 8.66667 31.6835 10.0583 33.3502 12.275C35.0169 14.4917 35.8502 16.9667 35.8502 19.7V35H40.0002V38H8.0002ZM24.0002 44C22.9335 44 22.0002 43.6083 21.2002 42.825C20.4002 42.0417 20.0002 41.1 20.0002 40H28.0002C28.0002 41.1 27.6085 42.0417 26.8252 42.825C26.0419 43.6083 25.1002 44 24.0002 44ZM15.2002 35H32.8502V19.7C32.8502 17.2 32.0002 15.0917 30.3002 13.375C28.6002 11.6583 26.5169 10.8 24.0502 10.8C21.5502 10.8 19.4502 11.6583 17.7502 13.375C16.0502 15.0917 15.2002 17.2 15.2002 19.7V35Z" fill="#0074FC"/>
</svg>
