<svg width="48" height="48" viewBox="0 0 48 48" fill="none" xmlns="http://www.w3.org/2000/svg">
<path d="M8 38V35H12.2V19.7C12.2 16.9667 13.025 14.4917 14.675 12.275C16.325 10.0583 18.5 8.66667 21.2 8.1V6.65C21.2 5.88333 21.475 5.25 22.025 4.75C22.575 4.25 23.2333 4 24 4C24.7667 4 25.425 4.25 25.975 4.75C26.525 5.25 26.8 5.88333 26.8 6.65V8.1C27.6333 8.26667 28.475 8.55833 29.325 8.975C30.175 9.39167 30.9167 9.88333 31.55 10.45L30.475 11.525L29.4 12.6C28.6667 12 27.825 11.55 26.875 11.25C25.925 10.95 24.9667 10.8 24 10.8C21.5 10.8 19.4083 11.6583 17.725 13.375C16.0417 15.0917 15.2 17.2 15.2 19.7V35H32.85V27.6H35.85V35H40V38H8ZM24 44C22.9 44 21.9583 43.6083 21.175 42.825C20.3917 42.0417 20 41.1 20 40H28C28 41.1 27.6083 42.0417 26.825 42.825C26.0417 43.6083 25.1 44 24 44ZM38.5 26V19.5H32V16.5H38.5V10H41.5V16.5H48V19.5H41.5V26H38.5Z" fill="#0074FC"/>
</svg>
