<svg width="187" height="40" viewBox="0 0 187 40" fill="none" xmlns="http://www.w3.org/2000/svg">
<g clip-path="url(#clip0)">
<path d="M27.3208 34.2202H14.0054L12.5896 38.584H28.7366L27.3208 34.2202Z" fill="white"/>
<path d="M21.792 1.46045H28.1809L39.5339 36.4067H33.145L21.792 1.46045Z" fill="white"/>
<path d="M19.5339 1.46045H13.145L1.79199 36.4067H8.18088L19.5339 1.46045Z" fill="white"/>
<path d="M187.052 1.46045H162.365V6.59486H171.828V36.4067H177.59V6.59486H187.052V1.46045Z" fill="white"/>
<path d="M127.823 1.46045V36.4067H150.26V31.2723H133.593V21.335H147.877V16.2096H133.593V6.59486H150.26V1.46045H127.823Z" fill="white"/>
<path d="M67.9031 1.46045L59.7311 27.5805L51.568 1.46941L51.5591 1.46045H45.1702L56.5232 36.4067H62.939L74.292 1.46045H67.9031Z" fill="white"/>
<path d="M91.1918 1.46045H86.2725V36.4067H92.0431V13.0465L107.796 36.4067H112.715V1.46045H106.953V24.8207L91.1918 1.46045Z" fill="white"/>
</g>
<defs>
<clipPath id="clip0">
<rect width="186.667" height="40" fill="white"/>
</clipPath>
</defs>
</svg>
