<svg width="40" height="42" viewBox="0 0 40 42" fill="none" xmlns="http://www.w3.org/2000/svg">
<path d="M20 1L37.3205 11V31L20 41L2.67949 31V11L20 1Z" stroke="#0074FC"/>
<mask id="path-2-outside-1" maskUnits="userSpaceOnUse" x="14.7441" y="13.0234" width="10" height="15" fill="black">
<rect fill="white" x="14.7441" y="13.0234" width="10" height="15"/>
<path fill-rule="evenodd" clip-rule="evenodd" d="M18.4987 20.3642C17.4561 19.8042 16.7441 18.6792 16.7441 17.3826C16.7441 15.5274 18.2018 14.0234 20 14.0234C21.7981 14.0234 23.2558 15.5274 23.2558 17.3826C23.2558 18.6791 22.5439 19.804 21.5015 20.364L23.1558 26.1165H16.8445L18.4987 20.3642Z"/>
</mask>
<path d="M18.4987 20.3642L19.4598 20.6405L19.6828 19.865L18.9719 19.4832L18.4987 20.3642ZM21.5015 20.364L21.0283 19.4831L20.3175 19.8649L20.5405 20.6403L21.5015 20.364ZM23.1558 26.1165V27.1165H24.4839L24.1168 25.8401L23.1558 26.1165ZM16.8445 26.1165L15.8835 25.8401L15.5164 27.1165H16.8445V26.1165ZM15.7441 17.3826C15.7441 19.0505 16.6612 20.5124 18.0256 21.2451L18.9719 19.4832C18.2511 19.0961 17.7441 18.3079 17.7441 17.3826H15.7441ZM20 13.0234C17.6203 13.0234 15.7441 15.0048 15.7441 17.3826H17.7441C17.7441 16.05 18.7833 15.0234 20 15.0234V13.0234ZM24.2558 17.3826C24.2558 15.0048 22.3796 13.0234 20 13.0234V15.0234C21.2166 15.0234 22.2558 16.05 22.2558 17.3826H24.2558ZM21.9748 21.2449C23.3389 20.512 24.2558 19.0503 24.2558 17.3826H22.2558C22.2558 18.3078 21.7489 19.0959 21.0283 19.4831L21.9748 21.2449ZM20.5405 20.6403L22.1947 26.3928L24.1168 25.8401L22.4626 20.0876L20.5405 20.6403ZM23.1558 25.1165H16.8445V27.1165H23.1558V25.1165ZM17.8056 26.3928L19.4598 20.6405L17.5377 20.0878L15.8835 25.8401L17.8056 26.3928Z" fill="#0074FC" mask="url(#path-2-outside-1)"/>
</svg>
