<svg width="36" height="44" viewBox="0 0 36 44" fill="none" xmlns="http://www.w3.org/2000/svg">
<mask id="path-1-outside-1" maskUnits="userSpaceOnUse" x="-0.949951" y="1.81152" width="21" height="42" fill="black">
<rect fill="white" x="-0.949951" y="1.81152" width="21" height="42"/>
<path fill-rule="evenodd" clip-rule="evenodd" d="M19.05 9.02209L10.0251 3.81152L1.00012 9.02209V19.4432L6.76696 22.7727V39.7205L10.0515 41.9993L13.336 39.7205V22.7422L19.05 19.4432V9.02209Z"/>
</mask>
<path d="M10.0251 3.81152L9.52509 2.9455L10.0251 2.65682L10.5251 2.9455L10.0251 3.81152ZM19.05 9.02209L19.55 8.15606L20.05 8.44474V9.02209H19.05ZM1.00012 9.02209H0.000120163V8.44474L0.50012 8.15606L1.00012 9.02209ZM1.00012 19.4432L0.50012 20.3092L0.000120163 20.0206V19.4432H1.00012ZM6.76696 22.7727L7.26696 21.9067L7.76696 22.1954V22.7727H6.76696ZM6.76696 39.7205L6.19692 40.5421L5.76696 40.2438V39.7205H6.76696ZM10.0515 41.9993L10.6215 42.8209L10.0515 43.2164L9.48144 42.8209L10.0515 41.9993ZM13.336 39.7205H14.336V40.2438L13.906 40.5421L13.336 39.7205ZM13.336 22.7422H12.336V22.1649L12.836 21.8762L13.336 22.7422ZM19.05 19.4432H20.05V20.0206L19.55 20.3092L19.05 19.4432ZM10.5251 2.9455L19.55 8.15606L18.55 9.88811L9.52509 4.67755L10.5251 2.9455ZM0.50012 8.15606L9.52509 2.9455L10.5251 4.67755L1.50012 9.88811L0.50012 8.15606ZM0.000120163 19.4432V9.02209H2.00012V19.4432H0.000120163ZM6.26696 23.6387L0.50012 20.3092L1.50012 18.5772L7.26696 21.9067L6.26696 23.6387ZM5.76696 39.7205V22.7727H7.76696V39.7205H5.76696ZM9.48144 42.8209L6.19692 40.5421L7.337 38.8989L10.6215 41.1777L9.48144 42.8209ZM13.906 40.5421L10.6215 42.8209L9.48144 41.1777L12.766 38.8989L13.906 40.5421ZM14.336 22.7422V39.7205H12.336V22.7422H14.336ZM19.55 20.3092L13.836 23.6083L12.836 21.8762L18.55 18.5772L19.55 20.3092ZM20.05 9.02209V19.4432H18.05V9.02209H20.05Z" fill="#0074FC" mask="url(#path-1-outside-1)"/>
<path d="M10.0251 10.1553L13.5566 12.1942V16.272L10.0251 18.3109L6.49359 16.272V12.1942L10.0251 10.1553Z" stroke="#0074FC"/>
<mask id="path-4-outside-2" maskUnits="userSpaceOnUse" x="14.8716" y="0.1875" width="21" height="42" fill="black">
<rect fill="white" x="14.8716" y="0.1875" width="21" height="42"/>
<path fill-rule="evenodd" clip-rule="evenodd" d="M34.8716 34.9769L25.8466 40.1875L16.8217 34.9769V24.5558L22.5885 21.2263V4.2785L25.873 1.9997L29.1575 4.2785V21.2568L34.8716 24.5558V34.9769Z"/>
</mask>
<path d="M25.8466 40.1875L25.3466 41.0535L25.8466 41.3422L26.3466 41.0535L25.8466 40.1875ZM34.8716 34.9769L35.3716 35.843L35.8716 35.5543V34.9769H34.8716ZM16.8217 34.9769H15.8217V35.5543L16.3217 35.843L16.8217 34.9769ZM16.8217 24.5558L16.3217 23.6898L15.8217 23.9785V24.5558H16.8217ZM22.5885 21.2263L23.0885 22.0923L23.5885 21.8037V21.2263H22.5885ZM22.5885 4.2785L22.0185 3.45688L21.5885 3.75518V4.2785H22.5885ZM25.873 1.9997L26.4431 1.17808L25.873 0.782589L25.303 1.17808L25.873 1.9997ZM29.1575 4.2785H30.1575V3.75518L29.7276 3.45688L29.1575 4.2785ZM29.1575 21.2568H28.1575V21.8341L28.6575 22.1228L29.1575 21.2568ZM34.8716 24.5558H35.8716V23.9785L35.3716 23.6898L34.8716 24.5558ZM26.3466 41.0535L35.3716 35.843L34.3716 34.1109L25.3466 39.3215L26.3466 41.0535ZM16.3217 35.843L25.3466 41.0535L26.3466 39.3215L17.3217 34.1109L16.3217 35.843ZM15.8217 24.5558V34.9769H17.8217V24.5558H15.8217ZM22.0885 20.3603L16.3217 23.6898L17.3217 25.4218L23.0885 22.0923L22.0885 20.3603ZM21.5885 4.2785V21.2263H23.5885V4.2785H21.5885ZM25.303 1.17808L22.0185 3.45688L23.1585 5.10011L26.443 2.82132L25.303 1.17808ZM29.7276 3.45688L26.4431 1.17808L25.303 2.82132L28.5875 5.10011L29.7276 3.45688ZM30.1575 21.2568V4.2785H28.1575V21.2568H30.1575ZM35.3716 23.6898L29.6575 20.3908L28.6575 22.1228L34.3716 25.4218L35.3716 23.6898ZM35.8716 34.9769V24.5558H33.8716V34.9769H35.8716Z" fill="#0074FC" mask="url(#path-4-outside-2)"/>
<path d="M25.8461 33.8438L29.3777 31.8048V27.727L25.8461 25.6881L22.3146 27.727V31.8048L25.8461 33.8438Z" stroke="#0074FC"/>
</svg>
