<svg width="33" height="42" viewBox="0 0 33 42" fill="none" xmlns="http://www.w3.org/2000/svg">
<path d="M11.6287 12.4727L21.6994 18.2091V29.6821L11.6287 35.4186L1.55794 29.6821V18.2091L11.6287 12.4727Z" fill="#121212" stroke="#0074FC"/>
<path d="M21.3713 18.0537L31.442 23.7902V35.2631L21.3713 40.9996L11.3006 35.2631V23.7902L21.3713 18.0537Z" fill="#121212" stroke="#0074FC"/>
<path d="M11.4715 1L21.4061 6.65896V17.9769L11.4715 23.6358L1.53689 17.9769V6.65896L11.4715 1Z" fill="#121212" stroke="#0074FC"/>
<path d="M11.4715 1L21.4061 6.65896V6.814L11.4715 12.473L1.53687 6.814V6.65896L11.4715 1Z" stroke="#0074FC"/>
<path d="M21.563 18.0537L31.4977 23.7127V23.8677L21.563 29.5267L11.6284 23.8677V23.7127L21.563 18.0537Z" stroke="#0074FC"/>
</svg>
