<svg width="48" height="48" viewBox="0 0 48 48" fill="none" xmlns="http://www.w3.org/2000/svg">
<path d="M30.5998 32.7L22.4998 24.6V14.5H25.4998V23.4L32.6998 30.6L30.5998 32.7ZM5.8498 32.65C5.3498 31.55 4.9498 30.4 4.6498 29.2C4.3498 28 4.1498 26.7667 4.0498 25.5H7.0498C7.11647 26.5 7.28314 27.475 7.5498 28.425C7.81647 29.375 8.13314 30.2833 8.4998 31.15L5.8498 32.65ZM4.0498 22.5C4.1498 21.2333 4.35814 19.9917 4.6748 18.775C4.99147 17.5583 5.3998 16.4 5.8998 15.3L8.4998 16.8C8.0998 17.6667 7.7748 18.575 7.5248 19.525C7.2748 20.475 7.11647 21.4667 7.0498 22.5H4.0498ZM12.6998 40.65C11.6331 39.9167 10.6415 39.1 9.7248 38.2C8.80814 37.3 7.9998 36.3167 7.2998 35.25L9.9498 33.75C10.5165 34.6167 11.1581 35.4 11.8748 36.1C12.5915 36.8 13.3665 37.4333 14.1998 38L12.6998 40.65ZM9.9498 14.2L7.3498 12.7C8.0498 11.6333 8.8498 10.65 9.7498 9.74999C10.6498 8.84999 11.6331 8.04999 12.6998 7.34999L14.1998 9.99999C13.3665 10.5667 12.5915 11.2 11.8748 11.9C11.1581 12.6 10.5165 13.3667 9.9498 14.2ZM22.4998 43.95C21.1998 43.85 19.9498 43.6417 18.7498 43.325C17.5498 43.0083 16.3998 42.6 15.2998 42.1L16.7998 39.5C17.6665 39.9 18.5748 40.225 19.5248 40.475C20.4748 40.725 21.4665 40.8833 22.4998 40.95V43.95ZM16.7998 8.49999L15.2998 5.89999C16.3998 5.39999 17.5498 4.99165 18.7498 4.67499C19.9498 4.35832 21.1998 4.14999 22.4998 4.04999V7.04999C21.4665 7.11665 20.4748 7.27499 19.5248 7.52499C18.5748 7.77499 17.6665 8.09999 16.7998 8.49999ZM25.4998 43.95V40.95C26.5331 40.8833 27.5248 40.725 28.4748 40.475C29.4248 40.225 30.3331 39.9 31.1998 39.5L32.6998 42.1C31.5998 42.6 30.4415 43.0083 29.2248 43.325C28.0081 43.6417 26.7665 43.85 25.4998 43.95ZM31.1998 8.49999C30.3331 8.09999 29.4248 7.77499 28.4748 7.52499C27.5248 7.27499 26.5331 7.11665 25.4998 7.04999V4.04999C26.7665 4.14999 28.0081 4.34999 29.2248 4.64999C30.4415 4.94999 31.5998 5.36665 32.6998 5.89999L31.1998 8.49999ZM35.2998 40.65L33.7998 38C34.6331 37.4333 35.3998 36.8 36.0998 36.1C36.7998 35.4 37.4331 34.6333 37.9998 33.8L40.6498 35.3C39.9498 36.3667 39.1498 37.35 38.2498 38.25C37.3498 39.15 36.3665 39.95 35.2998 40.65ZM37.9998 14.2C37.4331 13.3667 36.7998 12.6 36.0998 11.9C35.3998 11.2 34.6331 10.5667 33.7998 9.99999L35.2998 7.34999C36.3665 8.04999 37.3415 8.84999 38.2248 9.74999C39.1081 10.65 39.8998 11.6333 40.5998 12.7L37.9998 14.2ZM40.9498 22.5C40.8831 21.4667 40.7165 20.475 40.4498 19.525C40.1831 18.575 39.8498 17.6667 39.4498 16.8L42.0998 15.3C42.6331 16.4 43.0498 17.55 43.3498 18.75C43.6498 19.95 43.8498 21.2 43.9498 22.5H40.9498ZM42.0998 32.7L39.4998 31.2C39.8998 30.3333 40.2248 29.425 40.4748 28.475C40.7248 27.525 40.8831 26.5333 40.9498 25.5H43.9498C43.8498 26.8 43.6415 28.05 43.3248 29.25C43.0081 30.45 42.5998 31.6 42.0998 32.7Z" fill="#0074FC"/>
</svg>
