<svg width="171" height="31" viewBox="0 0 171 31" fill="none" xmlns="http://www.w3.org/2000/svg">
<path d="M12.8594 18.0625C12.8594 18.4688 12.776 18.8438 12.6094 19.1875C12.4427 19.5208 12.2031 19.8073 11.8906 20.0469C11.5781 20.2865 11.1927 20.474 10.7344 20.6094C10.2865 20.7448 9.77083 20.8125 9.1875 20.8125C8.53125 20.8125 7.92708 20.7396 7.375 20.5938C6.83333 20.4479 6.36979 20.2188 5.98438 19.9062C5.58854 19.5938 5.28125 19.1927 5.0625 18.7031C4.84375 18.2135 4.72396 17.625 4.70312 16.9375H0.390625C0.390625 18.1146 0.614583 19.1406 1.0625 20.0156C1.52083 20.8906 2.14062 21.651 2.92188 22.2969C3.74479 22.9531 4.70833 23.4531 5.8125 23.7969C6.92708 24.1302 8.05208 24.2969 9.1875 24.2969C10.3438 24.2969 11.4115 24.1615 12.3906 23.8906C13.3698 23.6094 14.2135 23.1979 14.9219 22.6562C15.6302 22.125 16.1823 21.474 16.5781 20.7031C16.9844 19.9219 17.1875 19.0312 17.1875 18.0312C17.1875 16.875 16.9219 15.8542 16.3906 14.9688C15.8594 14.0833 15.1458 13.3073 14.25 12.6406C13.6562 12.2344 13.0052 11.875 12.2969 11.5625C11.5885 11.25 10.8438 10.9844 10.0625 10.7656C9.33333 10.5677 8.67708 10.3542 8.09375 10.125C7.52083 9.89583 7.03125 9.64062 6.625 9.35938C6.21875 9.08854 5.90625 8.78125 5.6875 8.4375C5.47917 8.09375 5.375 7.70833 5.375 7.28125C5.375 6.875 5.45312 6.5 5.60938 6.15625C5.77604 5.80208 6.01562 5.49479 6.32812 5.23438C6.64062 4.98438 7.02083 4.79167 7.46875 4.65625C7.92708 4.51042 8.44792 4.4375 9.03125 4.4375C9.66667 4.4375 10.2188 4.52604 10.6875 4.70312C11.1667 4.86979 11.5677 5.10417 11.8906 5.40625C12.2031 5.71875 12.4375 6.08854 12.5938 6.51562C12.7604 6.94271 12.8542 7.41146 12.875 7.92188H17.1562C17.1562 6.90104 16.9583 5.96354 16.5625 5.10938C16.1667 4.25521 15.6146 3.51562 14.9062 2.89062C14.1979 2.27604 13.349 1.79688 12.3594 1.45312C11.3802 1.10938 10.2969 0.9375 9.10938 0.9375C7.96354 0.9375 6.90104 1.08854 5.92188 1.39062C4.94271 1.68229 4.09375 2.10417 3.375 2.65625C2.65625 3.20833 2.09375 3.875 1.6875 4.65625C1.28125 5.4375 1.07812 6.30729 1.07812 7.26562C1.07812 8.09896 1.22917 8.86979 1.53125 9.57812C1.84375 10.2865 2.30208 10.9323 2.90625 11.5156C3.51042 12.099 4.28646 12.6354 5.23438 13.125C6.19271 13.6146 7.30208 14.0312 8.5625 14.375C9.375 14.5938 10.0521 14.8333 10.5938 15.0938C11.1458 15.3438 11.5938 15.6198 11.9375 15.9219C12.2708 16.2344 12.5052 16.5677 12.6406 16.9219C12.7865 17.276 12.8594 17.6562 12.8594 18.0625Z" fill="#0074FC"/>
<path d="M31.4531 24H35.3906V7.09375H31.0312V18.9531C30.8958 19.224 30.7344 19.4688 30.5469 19.6875C30.3594 19.9062 30.1458 20.0938 29.9062 20.25C29.625 20.4271 29.2969 20.5625 28.9219 20.6562C28.5573 20.75 28.1458 20.7969 27.6875 20.7969C27.1771 20.7969 26.7448 20.7344 26.3906 20.6094C26.0365 20.4844 25.75 20.276 25.5312 19.9844C25.3125 19.7031 25.151 19.3281 25.0469 18.8594C24.9531 18.3906 24.9062 17.8125 24.9062 17.125V7.09375H20.5625V17.0938C20.5625 18.375 20.7031 19.474 20.9844 20.3906C21.276 21.2969 21.6823 22.0417 22.2031 22.625C22.724 23.2188 23.349 23.651 24.0781 23.9219C24.8073 24.1927 25.6094 24.3281 26.4844 24.3281C27.4427 24.3281 28.3229 24.0885 29.125 23.6094C29.9375 23.1302 30.6302 22.4688 31.2031 21.625L31.4531 24Z" fill="#0074FC"/>
<path d="M39.7031 30.5H44.0469V22.5312C44.2448 22.75 44.4531 22.9479 44.6719 23.125C44.8906 23.3021 45.1198 23.4635 45.3594 23.6094C45.7656 23.8385 46.2031 24.0104 46.6719 24.125C47.151 24.25 47.6719 24.3125 48.2344 24.3125C49.2969 24.3125 50.2396 24.0938 51.0625 23.6562C51.8854 23.2188 52.5781 22.6146 53.1406 21.8438C53.6927 21.0833 54.1094 20.1771 54.3906 19.125C54.6823 18.0729 54.8281 16.9323 54.8281 15.7031V15.375C54.8281 14.0938 54.6823 12.9271 54.3906 11.875C54.1094 10.8125 53.6875 9.90104 53.125 9.14062C52.5625 8.39062 51.8698 7.8125 51.0469 7.40625C50.224 6.98958 49.276 6.78125 48.2031 6.78125C47.6823 6.78125 47.1927 6.83854 46.7344 6.95312C46.2865 7.05729 45.875 7.20833 45.5 7.40625C45.1875 7.57292 44.8958 7.77083 44.625 8C44.3542 8.21875 44.1042 8.46875 43.875 8.75L43.7188 7.09375H39.7031V30.5ZM50.4844 15.375V15.7031C50.4844 16.401 50.4219 17.0625 50.2969 17.6875C50.1719 18.3021 49.974 18.8438 49.7031 19.3125C49.4323 19.7812 49.0781 20.151 48.6406 20.4219C48.2135 20.6927 47.6927 20.8281 47.0781 20.8281C46.6927 20.8281 46.3438 20.7917 46.0312 20.7188C45.7188 20.6354 45.4427 20.5208 45.2031 20.375C44.9531 20.2188 44.7292 20.0312 44.5312 19.8125C44.3438 19.5938 44.1823 19.349 44.0469 19.0781V12.0156C44.1927 11.724 44.3646 11.4688 44.5625 11.25C44.7708 11.0312 45.0104 10.849 45.2812 10.7031C45.5208 10.5781 45.7865 10.4844 46.0781 10.4219C46.3698 10.349 46.6927 10.3125 47.0469 10.3125C47.6615 10.3125 48.1823 10.4427 48.6094 10.7031C49.0469 10.9635 49.4062 11.3177 49.6875 11.7656C49.9583 12.224 50.1562 12.7656 50.2812 13.3906C50.4167 14.0052 50.4844 14.6667 50.4844 15.375Z" fill="#0074FC"/>
<path d="M67.0625 24.3125C68.6979 24.3125 70.1146 23.9948 71.3125 23.3594C72.5104 22.724 73.3854 22.0156 73.9375 21.2344L71.7656 18.8906C71.2656 19.5365 70.6146 20.0208 69.8125 20.3438C69.0104 20.6667 68.1823 20.8281 67.3281 20.8281C66.724 20.8281 66.1667 20.7344 65.6562 20.5469C65.1458 20.3594 64.6927 20.0938 64.2969 19.75C63.9115 19.4167 63.6042 19.0469 63.375 18.6406C63.1458 18.224 62.9583 17.6771 62.8125 17V16.9531H74.2812V15.1094C74.2812 13.8698 74.1094 12.7396 73.7656 11.7188C73.4219 10.6875 72.9219 9.80729 72.2656 9.07812C71.599 8.34896 70.7865 7.78646 69.8281 7.39062C68.8802 6.98438 67.7969 6.78125 66.5781 6.78125C65.401 6.78125 64.3125 6.99479 63.3125 7.42188C62.3125 7.84896 61.4479 8.44792 60.7188 9.21875C59.9896 9.98958 59.4219 10.9115 59.0156 11.9844C58.6094 13.0469 58.4062 14.224 58.4062 15.5156V16.1406C58.4062 17.276 58.6094 18.3438 59.0156 19.3438C59.4323 20.3333 60.0208 21.1927 60.7812 21.9219C61.5417 22.6615 62.4531 23.2448 63.5156 23.6719C64.5781 24.099 65.7604 24.3125 67.0625 24.3125ZM66.5469 10.2969C67.099 10.2969 67.5833 10.3854 68 10.5625C68.4271 10.7292 68.7865 10.9583 69.0781 11.25C69.3698 11.5521 69.599 11.9062 69.7656 12.3125C69.9323 12.7188 70.0156 13.151 70.0156 13.6094V13.9531H62.8906C62.9948 13.401 63.151 12.901 63.3594 12.4531C63.5677 12.0052 63.8281 11.6198 64.1406 11.2969C64.4427 10.974 64.7969 10.7292 65.2031 10.5625C65.6094 10.3854 66.0573 10.2969 66.5469 10.2969Z" fill="#0074FC"/>
<path d="M90.2188 6.78125C89.0833 6.78125 88.0365 7.05729 87.0781 7.60938C86.1198 8.15104 85.2969 8.90104 84.6094 9.85938L84.5781 9.48438L84.4062 7.09375H80.3594V24H84.7031V13.8438C84.901 13.3646 85.151 12.9479 85.4531 12.5938C85.7552 12.2396 86.1198 11.9479 86.5469 11.7188C86.901 11.5208 87.3021 11.375 87.75 11.2812C88.2083 11.1771 88.7188 11.125 89.2812 11.125C89.8229 11.125 90.3906 11.1615 90.9844 11.2344C91.5885 11.2969 92.1771 11.3958 92.75 11.5312L93.3906 7.20312C93.0469 7.09896 92.5938 7.00521 92.0312 6.92188C91.4792 6.82812 90.875 6.78125 90.2188 6.78125Z" fill="#0074FC"/>
<path d="M112.938 16.875H108.547C108.505 17.5625 108.391 18.151 108.203 18.6406C108.016 19.1302 107.76 19.5312 107.438 19.8438C107.115 20.1562 106.724 20.3854 106.266 20.5312C105.807 20.6771 105.292 20.75 104.719 20.75C104.292 20.75 103.901 20.7031 103.547 20.6094C103.203 20.5052 102.891 20.349 102.609 20.1406C102.349 19.9531 102.115 19.7188 101.906 19.4375C101.708 19.1562 101.536 18.8333 101.391 18.4688C101.182 17.9375 101.026 17.3177 100.922 16.6094C100.828 15.8906 100.781 15.0781 100.781 14.1719V11.0781C100.781 10.4115 100.812 9.79167 100.875 9.21875C100.938 8.63542 101.036 8.10417 101.172 7.625C101.349 7.01042 101.583 6.47396 101.875 6.01562C102.177 5.54688 102.542 5.1875 102.969 4.9375C103.219 4.79167 103.49 4.68229 103.781 4.60938C104.083 4.53646 104.406 4.5 104.75 4.5C105.396 4.5 105.948 4.58854 106.406 4.76562C106.875 4.93229 107.266 5.18229 107.578 5.51562C107.88 5.85938 108.109 6.28646 108.266 6.79688C108.432 7.30729 108.536 7.90104 108.578 8.57812H112.953C112.849 7.39062 112.599 6.32292 112.203 5.375C111.807 4.42708 111.266 3.625 110.578 2.96875C109.891 2.3125 109.057 1.80729 108.078 1.45312C107.109 1.09896 106 0.921875 104.75 0.921875C103.906 0.921875 103.115 1.03125 102.375 1.25C101.646 1.45833 100.974 1.76042 100.359 2.15625C99.6719 2.625 99.0573 3.19792 98.5156 3.875C97.974 4.55208 97.5365 5.32292 97.2031 6.1875C96.9115 6.89583 96.6927 7.66667 96.5469 8.5C96.401 9.32292 96.3281 10.1927 96.3281 11.1094V14.1719C96.3281 15.151 96.4062 16.0781 96.5625 16.9531C96.7292 17.8281 96.9635 18.6302 97.2656 19.3594C97.5781 20.0885 97.9583 20.7552 98.4062 21.3594C98.8646 21.9635 99.3854 22.4792 99.9688 22.9062C100.604 23.3646 101.318 23.7188 102.109 23.9688C102.911 24.2083 103.781 24.3281 104.719 24.3281C105.906 24.3281 106.99 24.1562 107.969 23.8125C108.948 23.4583 109.792 22.9583 110.5 22.3125C111.208 21.6667 111.771 20.8854 112.188 19.9688C112.615 19.0521 112.865 18.0208 112.938 16.875Z" fill="#0074FC"/>
<path d="M117.422 0V3.54688H122.484V20.4688H117.422V24H131.719V20.4688H126.875V0H117.422Z" fill="#0074FC"/>
<path d="M146.297 24H150.703V23.7344C150.484 23.3073 150.318 22.7969 150.203 22.2031C150.089 21.6094 150.031 20.8594 150.031 19.9531V12.7031C150.031 11.724 149.849 10.8646 149.484 10.125C149.12 9.375 148.615 8.75521 147.969 8.26562C147.323 7.77604 146.557 7.40625 145.672 7.15625C144.797 6.90625 143.849 6.78125 142.828 6.78125C141.693 6.78125 140.682 6.92708 139.797 7.21875C138.922 7.5 138.182 7.88542 137.578 8.375C136.964 8.86458 136.495 9.43229 136.172 10.0781C135.859 10.724 135.703 11.4062 135.703 12.125H140.047C140.047 11.8229 140.089 11.5469 140.172 11.2969C140.266 11.0469 140.406 10.8333 140.594 10.6562C140.802 10.4583 141.073 10.3073 141.406 10.2031C141.74 10.0885 142.135 10.0312 142.594 10.0312C143.115 10.0312 143.568 10.099 143.953 10.2344C144.349 10.3594 144.677 10.5417 144.938 10.7812C145.188 11.0104 145.375 11.2865 145.5 11.6094C145.625 11.9219 145.688 12.276 145.688 12.6719V13.6719H143.266C142.016 13.6719 140.906 13.7865 139.938 14.0156C138.979 14.2344 138.172 14.5573 137.516 14.9844C136.786 15.4531 136.24 16.0521 135.875 16.7812C135.51 17.5 135.328 18.3281 135.328 19.2656C135.328 19.9948 135.474 20.6719 135.766 21.2969C136.057 21.9115 136.464 22.4427 136.984 22.8906C137.505 23.3385 138.125 23.6875 138.844 23.9375C139.573 24.1875 140.37 24.3125 141.234 24.3125C141.766 24.3125 142.26 24.2604 142.719 24.1562C143.177 24.0625 143.599 23.9271 143.984 23.75C144.359 23.5833 144.703 23.3854 145.016 23.1562C145.328 22.9271 145.604 22.6823 145.844 22.4219C145.896 22.724 145.958 23.0104 146.031 23.2812C146.104 23.5521 146.193 23.7917 146.297 24ZM142.156 20.9531C141.75 20.9531 141.391 20.9062 141.078 20.8125C140.776 20.7083 140.521 20.5729 140.312 20.4062C140.104 20.2292 139.943 20.0156 139.828 19.7656C139.724 19.5052 139.672 19.224 139.672 18.9219C139.672 18.5365 139.745 18.1823 139.891 17.8594C140.036 17.526 140.26 17.2396 140.562 17C140.865 16.7708 141.255 16.5938 141.734 16.4688C142.214 16.3333 142.792 16.2656 143.469 16.2656H145.688V19.1719C145.562 19.3906 145.391 19.6094 145.172 19.8281C144.953 20.0365 144.693 20.224 144.391 20.3906C144.089 20.5573 143.75 20.6927 143.375 20.7969C143 20.901 142.594 20.9531 142.156 20.9531Z" fill="#0074FC"/>
<path d="M155.016 30.5H159.359V22.5312C159.557 22.75 159.766 22.9479 159.984 23.125C160.203 23.3021 160.432 23.4635 160.672 23.6094C161.078 23.8385 161.516 24.0104 161.984 24.125C162.464 24.25 162.984 24.3125 163.547 24.3125C164.609 24.3125 165.552 24.0938 166.375 23.6562C167.198 23.2188 167.891 22.6146 168.453 21.8438C169.005 21.0833 169.422 20.1771 169.703 19.125C169.995 18.0729 170.141 16.9323 170.141 15.7031V15.375C170.141 14.0938 169.995 12.9271 169.703 11.875C169.422 10.8125 169 9.90104 168.438 9.14062C167.875 8.39062 167.182 7.8125 166.359 7.40625C165.536 6.98958 164.589 6.78125 163.516 6.78125C162.995 6.78125 162.505 6.83854 162.047 6.95312C161.599 7.05729 161.188 7.20833 160.812 7.40625C160.5 7.57292 160.208 7.77083 159.938 8C159.667 8.21875 159.417 8.46875 159.188 8.75L159.031 7.09375H155.016V30.5ZM165.797 15.375V15.7031C165.797 16.401 165.734 17.0625 165.609 17.6875C165.484 18.3021 165.286 18.8438 165.016 19.3125C164.745 19.7812 164.391 20.151 163.953 20.4219C163.526 20.6927 163.005 20.8281 162.391 20.8281C162.005 20.8281 161.656 20.7917 161.344 20.7188C161.031 20.6354 160.755 20.5208 160.516 20.375C160.266 20.2188 160.042 20.0312 159.844 19.8125C159.656 19.5938 159.495 19.349 159.359 19.0781V12.0156C159.505 11.724 159.677 11.4688 159.875 11.25C160.083 11.0312 160.323 10.849 160.594 10.7031C160.833 10.5781 161.099 10.4844 161.391 10.4219C161.682 10.349 162.005 10.3125 162.359 10.3125C162.974 10.3125 163.495 10.4427 163.922 10.7031C164.359 10.9635 164.719 11.3177 165 11.7656C165.271 12.224 165.469 12.7656 165.594 13.3906C165.729 14.0052 165.797 14.6667 165.797 15.375Z" fill="#0074FC"/>
</svg>
